<svg width="18" height="12" viewBox="0 0 18 12" fill="none" xmlns="http://www.w3.org/2000/svg">
<path d="M14.4705 5.2125C14.5794 4.92589 14.6405 4.6125 14.6405 4.28571C14.6405 2.86607 13.4983 1.71429 12.0905 1.71429C11.5672 1.71429 11.0784 1.875 10.6747 2.14821C9.93891 0.8625 8.56563 0 6.99048 0C4.64235 0 2.74048 1.91786 2.74048 4.28571C2.74048 4.35804 2.74313 4.43036 2.74579 4.50268C1.25829 5.03036 0.190475 6.46071 0.190475 8.14286C0.190475 10.2723 1.90376 12 4.01548 12H13.7905C15.6684 12 17.1905 10.4652 17.1905 8.57143C17.1905 6.91339 16.0217 5.52857 14.4705 5.2125Z" fill="white"/>
</svg>
