<svg width="200" height="101" viewBox="0 0 200 101" fill="none" xmlns="http://www.w3.org/2000/svg">
<path d="M196.227 101H2.80636C1.24727 101 0 99.7527 0 98.1936C0 96.6345 1.24727 95.3872 2.80636 95.3872H196.227C197.786 95.3872 199.033 96.6345 199.033 98.1936C199.033 99.7527 197.786 101 196.227 101Z" fill="#C9C9C9"/>
<path d="M39.1955 72.0008C36.2021 72.0008 33.8011 69.5686 33.8011 66.6064C33.8011 63.6441 36.2332 61.2119 39.1955 61.2119H69.7537V72.032H39.1955V72.0008Z" fill="#CECECE"/>
<path d="M71.531 73.872H39.1955C35.1731 73.872 31.9302 70.5979 31.9302 66.6067C31.9302 62.5842 35.2042 59.3413 39.1955 59.3413H71.531V73.872Z" fill="white"/>
<path d="M37.1999 64.9229H69.7537" stroke="#1F3969" stroke-miterlimit="10" stroke-linecap="round" stroke-linejoin="round"/>
<path d="M37.1999 68.228H69.7537" stroke="#1F3969" stroke-miterlimit="10" stroke-linecap="round" stroke-linejoin="round"/>
<path d="M39.1955 72.0008C36.2021 72.0008 33.8011 69.5686 33.8011 66.6064C33.8011 63.6441 36.2332 61.2119 39.1955 61.2119H69.7537V72.032H39.1955V72.0008Z" stroke="#1F3969" stroke-miterlimit="10" stroke-linecap="round" stroke-linejoin="round"/>
<path d="M39.1955 72.0011C36.2021 72.0011 33.8011 69.5689 33.8011 66.6067C33.8011 63.6444 36.2332 61.2122 39.1955 61.2122H70.2838L71.531 59.3413H39.1955C35.1731 59.3413 31.9302 62.6154 31.9302 66.6067C31.9302 70.6291 35.2042 73.872 39.1955 73.872H71.531L70.2838 72.0011H39.1955Z" fill="#FF3E3E"/>
<path d="M39.1955 72.0011C36.2021 72.0011 33.8011 69.5689 33.8011 66.6067C33.8011 63.6444 36.2332 61.2122 39.1955 61.2122H70.2838L71.531 59.3413H39.1955C35.1731 59.3413 31.9302 62.6154 31.9302 66.6067C31.9302 70.6291 35.2042 73.872 39.1955 73.872H71.531L70.2838 72.0011H39.1955Z" stroke="#1F3969" stroke-miterlimit="10" stroke-linecap="round" stroke-linejoin="round"/>
<path opacity="0.28" d="M64.5775 59.3101H58.84V73.872H64.5775V59.3101Z" fill="#1F3969" stroke="#1F3969" stroke-miterlimit="10" stroke-linecap="round" stroke-linejoin="round"/>
<path d="M68.3346 86.0362H9.12036C7.96664 86.0362 7 85.1007 7 83.9158V76.1204C7 74.9666 7.93545 74 9.12036 74H68.3346C69.4883 74 70.455 74.9354 70.455 76.1204V83.9158C70.455 85.1007 69.5195 86.0362 68.3346 86.0362Z" fill="#50B56F"/>
<path d="M68.1946 85.877H8.98036C7.82663 85.877 6.85999 84.9415 6.85999 83.7566V75.9612C6.85999 74.8075 7.79545 73.8408 8.98036 73.8408H68.1946C69.3483 73.8408 70.3149 74.7763 70.3149 75.9612V83.7566C70.3149 84.9415 69.3795 85.877 68.1946 85.877Z" stroke="#1F3969" stroke-miterlimit="10" stroke-linecap="round" stroke-linejoin="round"/>
<path opacity="0.28" d="M68.1946 73.8721H58.84V78.5493C58.84 81.4804 61.2099 83.8814 64.1721 83.8814H70.3149C70.3149 83.8503 70.3149 83.8191 70.3149 83.7879V75.9924C70.3149 74.8075 69.3795 73.8721 68.1946 73.8721Z" fill="#1F3969" stroke="#1F3969" stroke-miterlimit="10" stroke-linecap="round" stroke-linejoin="round"/>
<path d="M84.8768 88.3091H16.2769C16.6823 89.3069 16.9005 90.5542 16.9005 91.8638C16.9005 93.1734 16.6823 94.3895 16.2769 95.4185H84.8457C84.4403 94.4207 84.222 93.1734 84.222 91.8638C84.2532 90.523 84.4715 89.3069 84.8768 88.3091Z" fill="#CECECE"/>
<path d="M86.7477 86.4067H14.4372V88.2776H86.7477V86.4067Z" fill="#5F5AFF"/>
<path d="M86.7477 86.4067H14.4372V88.2776H86.7477V86.4067Z" stroke="#1F3969" stroke-miterlimit="10" stroke-linecap="round" stroke-linejoin="round"/>
<path d="M86.7477 95.3872H14.4372V97.2581H86.7477V95.3872Z" fill="#F6F9FD"/>
<path d="M86.7477 95.3872H14.4372V97.2581H86.7477V95.3872Z" fill="#5F5AFF"/>
<path d="M86.7477 95.3872H14.4372V97.2581H86.7477V95.3872Z" stroke="#1F3969" stroke-miterlimit="10" stroke-linecap="round" stroke-linejoin="round"/>
<path d="M122.669 90.6167L121.734 80.1084H106.33L105.394 90.6167C105.176 93.0488 103.711 95.3875 101.403 97.2584V97.2896H126.66V97.2584C124.353 95.3875 122.887 93.0488 122.669 90.6167Z" fill="#BFCFE2"/>
<path opacity="0.28" d="M106.33 80.1084L105.769 86.4071H122.295L121.734 80.1084H106.33Z" fill="#1F3969" stroke="#1F3969" stroke-miterlimit="10" stroke-linecap="round" stroke-linejoin="round"/>
<path d="M122.669 90.6167L121.734 80.1084H106.33L105.394 90.6167C105.176 93.0488 103.711 95.3875 101.403 97.2584V97.2896H126.66V97.2584C124.353 95.3875 122.887 93.0488 122.669 90.6167Z" stroke="#1F3969" stroke-miterlimit="10" stroke-linecap="round" stroke-linejoin="round"/>
<path d="M163.299 81.6673H64.7646C62.7066 81.6673 61.0228 79.9835 61.0228 77.9255V13.691C61.0228 11.633 62.7066 9.94922 64.7646 9.94922H163.299C165.357 9.94922 167.041 11.633 167.041 13.691V77.9255C167.041 80.0147 165.357 81.6673 163.299 81.6673Z" fill="white"/>
<path d="M163.299 81.6673H64.7646C62.7066 81.6673 61.0228 79.9835 61.0228 77.9255V13.691C61.0228 11.633 62.7066 9.94922 64.7646 9.94922H163.299C165.357 9.94922 167.041 11.633 167.041 13.691V77.9255C167.041 80.0147 165.357 81.6673 163.299 81.6673Z" fill="#BFCFE2"/>
<path d="M163.299 81.6673H64.7646C62.7066 81.6673 61.0228 79.9835 61.0228 77.9255V13.691C61.0228 11.633 62.7066 9.94922 64.7646 9.94922H163.299C165.357 9.94922 167.041 11.633 167.041 13.691V77.9255C167.041 80.0147 165.357 81.6673 163.299 81.6673Z" stroke="#1F3969" stroke-miterlimit="10" stroke-linecap="round" stroke-linejoin="round"/>
<path d="M161.757 69.7022V15.2588H66.3411V69.7022H161.757Z" fill="#F6F9FD"/>
<path opacity="0.28" d="M69.7537 9.94922V53.1672C69.7537 54.5392 70.8762 55.6617 72.2482 55.6617H131.213C132.585 55.6617 133.708 54.5392 133.708 53.1672V9.94922H69.7537Z" fill="#1F3969" stroke="#1F3969" stroke-miterlimit="10" stroke-linecap="round" stroke-linejoin="round"/>
<path d="M161.757 69.7022V15.2588H66.3411V69.7022H161.757Z" stroke="#1F3969" stroke-miterlimit="10" stroke-linecap="round" stroke-linejoin="round"/>
<path d="M109.853 75.6494H118.241" stroke="#1F3969" stroke-miterlimit="10" stroke-linecap="round" stroke-linejoin="round"/>
<path d="M134.019 52.2317H75.0546C73.6826 52.2317 72.56 51.1092 72.56 49.7372V3.52579C72.56 2.15379 73.6826 1.03125 75.0546 1.03125H134.019C135.391 1.03125 136.514 2.15379 136.514 3.52579V49.7684C136.514 51.1404 135.391 52.2317 134.019 52.2317Z" fill="#2D425E"/>
<path d="M136.514 7.08045H72.56V3.49454C72.56 2.12254 73.6826 1 75.0546 1H134.019C135.391 1 136.514 2.12254 136.514 3.49454V7.08045Z" stroke="#1F3969" stroke-miterlimit="10" stroke-linecap="round" stroke-linejoin="round"/>
<path d="M136.514 8.26535H72.56V3.49454C72.56 2.12254 73.6826 1 75.0546 1H134.019C135.391 1 136.514 2.12254 136.514 3.49454V8.26535Z" fill="#D0DDF0"/>
<path d="M136.514 8.26535H72.56V3.49454C72.56 2.12254 73.6826 1 75.0546 1H134.019C135.391 1 136.514 2.12254 136.514 3.49454V8.26535Z" stroke="#1F3969" stroke-miterlimit="10" stroke-linecap="round" stroke-linejoin="round"/>
<path d="M136.514 8.26535H72.56V3.49454C72.56 2.12254 73.6826 1 75.0546 1H134.019C135.391 1 136.514 2.12254 136.514 3.49454V8.26535Z" stroke="#1F3969" stroke-miterlimit="10" stroke-linecap="round" stroke-linejoin="round"/>
<path d="M134.019 52.2317H75.0546C73.6826 52.2317 72.56 51.1092 72.56 49.7372V3.52579C72.56 2.15379 73.6826 1.03125 75.0546 1.03125H134.019C135.391 1.03125 136.514 2.15379 136.514 3.52579V49.7684C136.514 51.1404 135.391 52.2317 134.019 52.2317Z" stroke="#1F3969" stroke-miterlimit="10" stroke-linecap="round" stroke-linejoin="round"/>
<path opacity="0.28" d="M164.796 63.27H128.625C127.253 63.27 126.13 62.1475 126.13 60.7755V22.453C126.13 21.081 127.253 19.9585 128.625 19.9585H164.796C166.168 19.9585 167.29 21.081 167.29 22.453V60.7755C167.29 62.1786 166.168 63.27 164.796 63.27Z" fill="#1F3969" stroke="#1F3969" stroke-miterlimit="10" stroke-linecap="round" stroke-linejoin="round"/>
<path d="M167.29 61.0874H131.119C129.747 61.0874 128.625 59.9648 128.625 58.5928V20.2704C128.625 18.8984 129.747 17.7759 131.119 17.7759H167.29C168.662 17.7759 169.785 18.8984 169.785 20.2704V58.5928C169.785 59.996 168.662 61.0874 167.29 61.0874Z" fill="#2AA1FF"/>
<path d="M167.29 61.0874H131.119C129.747 61.0874 128.625 59.9648 128.625 58.5928V20.2704C128.625 18.8984 129.747 17.7759 131.119 17.7759H167.29C168.662 17.7759 169.785 18.8984 169.785 20.2704V58.5928C169.785 59.996 168.662 61.0874 167.29 61.0874Z" stroke="#1F3969" stroke-miterlimit="10" stroke-linecap="round" stroke-linejoin="round"/>
<path opacity="0.34" d="M161.896 29.656H136.452C135.547 29.656 134.83 28.9389 134.83 28.0346V25.6024C134.83 24.6981 135.547 23.981 136.452 23.981H161.896C162.8 23.981 163.517 24.6981 163.517 25.6024V28.0346C163.517 28.9389 162.8 29.656 161.896 29.656Z" stroke="white" stroke-miterlimit="10" stroke-linecap="round" stroke-linejoin="round"/>
<g opacity="0.34">
<path opacity="0.34" d="M150.733 38.7923H136.514C135.61 38.7923 134.892 38.0751 134.892 37.1708V34.7386C134.892 33.8344 135.61 33.1172 136.514 33.1172H150.733C151.637 33.1172 152.354 33.8344 152.354 34.7386V37.1708C152.323 38.0751 151.606 38.7923 150.733 38.7923Z" stroke="white" stroke-miterlimit="10" stroke-linecap="round" stroke-linejoin="round"/>
<path opacity="0.34" d="M161.927 38.7923H156.408C155.504 38.7923 154.786 38.0751 154.786 37.1708V34.7386C154.786 33.8344 155.504 33.1172 156.408 33.1172H161.927C162.831 33.1172 163.549 33.8344 163.549 34.7386V37.1708C163.549 38.0751 162.831 38.7923 161.927 38.7923Z" stroke="white" stroke-miterlimit="10" stroke-linecap="round" stroke-linejoin="round"/>
</g>
<path d="M134.861 48.2715H163.517" stroke="white" stroke-miterlimit="10" stroke-linecap="round" stroke-linejoin="round"/>
<path d="M134.861 51.6392H163.517" stroke="white" stroke-miterlimit="10" stroke-linecap="round" stroke-linejoin="round"/>
<path d="M134.861 55.0068H152.323" stroke="white" stroke-miterlimit="10" stroke-linecap="round" stroke-linejoin="round"/>
<path d="M78.8276 5.89542C79.5164 5.89542 80.0748 5.33696 80.0748 4.64815C80.0748 3.95934 79.5164 3.40088 78.8276 3.40088C78.1388 3.40088 77.5803 3.95934 77.5803 4.64815C77.5803 5.33696 78.1388 5.89542 78.8276 5.89542Z" fill="#1F3969"/>
<path d="M83.1618 5.89542C83.8506 5.89542 84.4091 5.33696 84.4091 4.64815C84.4091 3.95934 83.8506 3.40088 83.1618 3.40088C82.473 3.40088 81.9146 3.95934 81.9146 4.64815C81.9146 5.33696 82.473 5.89542 83.1618 5.89542Z" fill="#1F3969"/>
<path d="M87.4961 5.89542C88.1849 5.89542 88.7434 5.33696 88.7434 4.64815C88.7434 3.95934 88.1849 3.40088 87.4961 3.40088C86.8073 3.40088 86.2488 3.95934 86.2488 4.64815C86.2488 5.33696 86.8073 5.89542 87.4961 5.89542Z" fill="#1F3969"/>
<path d="M109.292 14.0342H113.346" stroke="white" stroke-miterlimit="10" stroke-linecap="round" stroke-linejoin="round"/>
<path d="M88.7434 14.0342H106.299" stroke="#7BFFA0" stroke-miterlimit="10" stroke-linecap="round" stroke-linejoin="round"/>
<path d="M80.0748 14.0342H86.2488" stroke="#9169FF" stroke-miterlimit="10" stroke-linecap="round" stroke-linejoin="round"/>
<path d="M88.1197 44.748H101.528" stroke="#9169FF" stroke-miterlimit="10" stroke-linecap="round" stroke-linejoin="round"/>
<path d="M80.0748 44.748H84.4091" stroke="#7BFFA0" stroke-miterlimit="10" stroke-linecap="round" stroke-linejoin="round"/>
<path d="M106.299 17.8691H108.824" stroke="white" stroke-miterlimit="10" stroke-linecap="round" stroke-linejoin="round"/>
<path d="M94.8238 17.8691H103.305" stroke="#9169FF" stroke-miterlimit="10" stroke-linecap="round" stroke-linejoin="round"/>
<path d="M83.1618 17.8691H91.7992" stroke="#FFC47D" stroke-miterlimit="10" stroke-linecap="round" stroke-linejoin="round"/>
<path d="M96.5388 21.7046H103.991" stroke="white" stroke-miterlimit="10" stroke-linecap="round" stroke-linejoin="round"/>
<path d="M87.1843 21.7046H94.2002" stroke="#FF5757" stroke-miterlimit="10" stroke-linecap="round" stroke-linejoin="round"/>
<path d="M97.5367 25.54H99.0646" stroke="white" stroke-miterlimit="10" stroke-linecap="round" stroke-linejoin="round"/>
<path d="M91.3627 25.54H94.8238" stroke="#9169FF" stroke-miterlimit="10" stroke-linecap="round" stroke-linejoin="round"/>
<path d="M83.1618 25.54H88.7434" stroke="#7BFFA0" stroke-miterlimit="10" stroke-linecap="round" stroke-linejoin="round"/>
<path d="M95.1357 29.4067H105.083" stroke="#FFC47D" stroke-miterlimit="10" stroke-linecap="round" stroke-linejoin="round"/>
<path d="M83.1618 29.4067H92.0798" stroke="#FF5757" stroke-miterlimit="10" stroke-linecap="round" stroke-linejoin="round"/>
<path d="M106.642 33.2422H112.036" stroke="#9169FF" stroke-miterlimit="10" stroke-linecap="round" stroke-linejoin="round"/>
<path d="M95.1357 33.2422H103.773" stroke="#FF5757" stroke-miterlimit="10" stroke-linecap="round" stroke-linejoin="round"/>
<path d="M87.1843 33.2422H92.0798" stroke="#7BFFA0" stroke-miterlimit="10" stroke-linecap="round" stroke-linejoin="round"/>
<path d="M99.0645 37.0771H103.773" stroke="white" stroke-miterlimit="10" stroke-linecap="round" stroke-linejoin="round"/>
<path d="M87.1843 37.0771H95.8216" stroke="#9169FF" stroke-miterlimit="10" stroke-linecap="round" stroke-linejoin="round"/>
<path d="M111.319 40.9126H116.713" stroke="white" stroke-miterlimit="10" stroke-linecap="round" stroke-linejoin="round"/>
<path d="M94.8238 40.9126H108.388" stroke="#FFC47D" stroke-miterlimit="10" stroke-linecap="round" stroke-linejoin="round"/>
<path d="M83.1618 40.9126H91.7992" stroke="white" stroke-miterlimit="10" stroke-linecap="round" stroke-linejoin="round"/>
<path d="M17.0564 90.4604H84.2532" stroke="#1F3969" stroke-miterlimit="10" stroke-linecap="round" stroke-linejoin="round"/>
<path d="M17.0564 92.9551H84.2532" stroke="#1F3969" stroke-miterlimit="10" stroke-linecap="round" stroke-linejoin="round"/>
<path d="M84.8768 88.3091H16.2769C16.6823 89.3069 16.9005 90.5542 16.9005 91.8638C16.9005 93.1734 16.6823 94.3895 16.2769 95.4185H84.8457C84.4403 94.4207 84.222 93.1734 84.222 91.8638C84.2532 90.523 84.4715 89.3069 84.8768 88.3091Z" stroke="#1F3969" stroke-miterlimit="10" stroke-linecap="round" stroke-linejoin="round"/>
<path d="M177.159 63L174.124 63.3564L176.764 85.8404L179.799 85.4839L177.159 63Z" fill="#FFA364"/>
<path d="M177.163 63.0244L174.128 63.3808L174.397 65.6724L177.432 65.316L177.163 63.0244Z" fill="#2AA1FF"/>
<path d="M177.163 63.0244L174.128 63.3808L174.397 65.6724L177.432 65.316L177.163 63.0244Z" stroke="#1F3969" stroke-miterlimit="10" stroke-linecap="round" stroke-linejoin="round"/>
<path d="M177.159 63L174.124 63.3564L176.764 85.8404L179.799 85.4839L177.159 63Z" stroke="#1F3969" stroke-miterlimit="10" stroke-linecap="round" stroke-linejoin="round"/>
<path d="M185.481 67.6056L182.444 67.2754L179.997 89.7796L183.034 90.1101L185.481 67.6056Z" fill="#FF5252"/>
<path d="M185.481 67.6056L182.444 67.2754L179.997 89.7796L183.034 90.1101L185.481 67.6056Z" stroke="#1F3969" stroke-miterlimit="10" stroke-linecap="round" stroke-linejoin="round"/>
<path d="M185.504 67.611L182.466 67.2808L182.217 69.5745L185.254 69.905L185.504 67.611Z" fill="#2D425E"/>
<path d="M185.504 67.611L182.466 67.2808L182.217 69.5745L185.254 69.905L185.504 67.611Z" stroke="#1F3969" stroke-miterlimit="10" stroke-linecap="round" stroke-linejoin="round"/>
<path d="M187.371 97.4653H175.117L173.121 78.6938H189.367L187.371 97.4653Z" fill="#6567C3"/>
<path d="M173.121 78.6938L173.152 79.0368H185.532L183.567 97.4653H187.371L189.367 78.6938H173.121Z" fill="#6567C3"/>
<path d="M187.371 97.4653H175.117L173.121 78.6938H189.367L187.371 97.4653Z" stroke="#1F3969" stroke-miterlimit="10" stroke-linecap="round" stroke-linejoin="round"/>
<path d="M22.538 76.9091H23.3036V80.5185C23.3036 80.8449 23.239 81.1242 23.1097 81.3562C22.9821 81.5882 22.8023 81.7655 22.5703 81.8881C22.3383 82.0091 22.0665 82.0696 21.755 82.0696C21.4683 82.0696 21.2106 82.0174 20.9819 81.913C20.7549 81.8086 20.575 81.657 20.4425 81.4581C20.3116 81.2576 20.2461 81.014 20.2461 80.7273H21.0092C21.0092 80.8681 21.0415 80.9899 21.1062 81.0927C21.1725 81.1954 21.2628 81.2758 21.3771 81.3338C21.4931 81.3902 21.6257 81.4183 21.7749 81.4183C21.9373 81.4183 22.0748 81.3844 22.1875 81.3164C22.3018 81.2468 22.3888 81.1449 22.4485 81.0107C22.5082 80.8764 22.538 80.7124 22.538 80.5185V76.9091ZM25.4731 82.0845C25.2311 82.0845 25.0124 82.0398 24.8169 81.9503C24.6213 81.8591 24.4664 81.7274 24.352 81.555C24.2393 81.3827 24.183 81.1714 24.183 80.9212C24.183 80.7057 24.2244 80.5284 24.3073 80.3892C24.3901 80.25 24.502 80.1398 24.6428 80.0586C24.7837 79.9774 24.9411 79.9161 25.1151 79.8746C25.2892 79.8332 25.4665 79.8017 25.6471 79.7802C25.8758 79.7537 26.0614 79.7321 26.2039 79.7156C26.3464 79.6973 26.45 79.6683 26.5146 79.6286C26.5793 79.5888 26.6116 79.5241 26.6116 79.4347V79.4173C26.6116 79.2002 26.5503 79.032 26.4276 78.9126C26.3067 78.7933 26.126 78.7337 25.8857 78.7337C25.6355 78.7337 25.4383 78.7892 25.2941 78.9002C25.1516 79.0096 25.053 79.1314 24.9983 79.2656L24.2998 79.1065C24.3827 78.8745 24.5036 78.6873 24.6627 78.5447C24.8235 78.4006 25.0083 78.2962 25.2171 78.2315C25.4259 78.1652 25.6454 78.1321 25.8758 78.1321C26.0283 78.1321 26.1898 78.1503 26.3605 78.1868C26.5329 78.2216 26.6936 78.2862 26.8428 78.3807C26.9936 78.4751 27.117 78.6102 27.2132 78.7859C27.3093 78.9599 27.3573 79.1861 27.3573 79.4645V82H26.6315V81.478H26.6017C26.5536 81.5741 26.4815 81.6686 26.3854 81.7614C26.2893 81.8542 26.1658 81.9312 26.015 81.9925C25.8642 82.0539 25.6836 82.0845 25.4731 82.0845ZM25.6347 81.4879C25.8402 81.4879 26.0158 81.4473 26.1617 81.3661C26.3092 81.2849 26.421 81.1789 26.4972 81.0479C26.5751 80.9154 26.6141 80.7737 26.6141 80.6229V80.1307C26.5876 80.1572 26.5362 80.1821 26.46 80.2053C26.3854 80.2268 26.3 80.2459 26.2039 80.2624C26.1078 80.2773 26.0142 80.2914 25.923 80.3047C25.8319 80.3163 25.7557 80.3262 25.6943 80.3345C25.5502 80.3527 25.4184 80.3834 25.2991 80.4265C25.1814 80.4696 25.087 80.5317 25.0157 80.6129C24.9461 80.6925 24.9113 80.7985 24.9113 80.9311C24.9113 81.1151 24.9793 81.2543 25.1151 81.3487C25.251 81.4415 25.4242 81.4879 25.6347 81.4879ZM31.4769 78.1818L30.0923 82H29.2969L27.9098 78.1818H28.7077L29.6747 81.12H29.7145L30.679 78.1818H31.4769ZM33.1772 82.0845C32.9353 82.0845 32.7165 82.0398 32.521 81.9503C32.3254 81.8591 32.1705 81.7274 32.0561 81.555C31.9434 81.3827 31.8871 81.1714 31.8871 80.9212C31.8871 80.7057 31.9285 80.5284 32.0114 80.3892C32.0942 80.25 32.2061 80.1398 32.3469 80.0586C32.4878 79.9774 32.6452 79.9161 32.8192 79.8746C32.9933 79.8332 33.1706 79.8017 33.3512 79.7802C33.5799 79.7537 33.7655 79.7321 33.908 79.7156C34.0505 79.6973 34.1541 79.6683 34.2188 79.6286C34.2834 79.5888 34.3157 79.5241 34.3157 79.4347V79.4173C34.3157 79.2002 34.2544 79.032 34.1317 78.9126C34.0108 78.7933 33.8301 78.7337 33.5898 78.7337C33.3396 78.7337 33.1424 78.7892 32.9982 78.9002C32.8557 79.0096 32.7571 79.1314 32.7024 79.2656L32.0039 79.1065C32.0868 78.8745 32.2077 78.6873 32.3668 78.5447C32.5276 78.4006 32.7124 78.2962 32.9212 78.2315C33.13 78.1652 33.3496 78.1321 33.5799 78.1321C33.7324 78.1321 33.8939 78.1503 34.0646 78.1868C34.237 78.2216 34.3977 78.2862 34.5469 78.3807C34.6977 78.4751 34.8211 78.6102 34.9173 78.7859C35.0134 78.9599 35.0614 79.1861 35.0614 79.4645V82H34.3356V81.478H34.3058C34.2577 81.5741 34.1856 81.6686 34.0895 81.7614C33.9934 81.8542 33.8699 81.9312 33.7191 81.9925C33.5683 82.0539 33.3877 82.0845 33.1772 82.0845ZM33.3388 81.4879C33.5443 81.4879 33.7199 81.4473 33.8658 81.3661C34.0133 81.2849 34.1251 81.1789 34.2013 81.0479C34.2792 80.9154 34.3182 80.7737 34.3182 80.6229V80.1307C34.2917 80.1572 34.2403 80.1821 34.1641 80.2053C34.0895 80.2268 34.0041 80.2459 33.908 80.2624C33.8119 80.2773 33.7183 80.2914 33.6271 80.3047C33.536 80.3163 33.4598 80.3262 33.3984 80.3345C33.2543 80.3527 33.1225 80.3834 33.0032 80.4265C32.8855 80.4696 32.7911 80.5317 32.7198 80.6129C32.6502 80.6925 32.6154 80.7985 32.6154 80.9311C32.6154 81.1151 32.6834 81.2543 32.8192 81.3487C32.9551 81.4415 33.1283 81.4879 33.3388 81.4879ZM38.9126 79.114L38.2389 79.2333C38.2107 79.1471 38.166 79.0651 38.1047 78.9872C38.045 78.9093 37.9638 78.8455 37.8611 78.7958C37.7583 78.7461 37.6299 78.7212 37.4758 78.7212C37.2653 78.7212 37.0896 78.7685 36.9488 78.8629C36.8079 78.9557 36.7375 79.0759 36.7375 79.2234C36.7375 79.351 36.7847 79.4537 36.8792 79.5316C36.9736 79.6095 37.1261 79.6733 37.3366 79.723L37.9431 79.8622C38.2944 79.9434 38.5563 80.0685 38.7286 80.2376C38.901 80.4066 38.9871 80.6262 38.9871 80.8963C38.9871 81.125 38.9208 81.3288 38.7883 81.5078C38.6573 81.6851 38.4742 81.8243 38.2389 81.9254C38.0052 82.0265 37.7343 82.0771 37.426 82.0771C36.9985 82.0771 36.6497 81.9859 36.3795 81.8036C36.1094 81.6197 35.9437 81.3587 35.8824 81.0206L36.6008 80.9112C36.6455 81.0985 36.7375 81.2402 36.8767 81.3363C37.0159 81.4308 37.1974 81.478 37.4211 81.478C37.6647 81.478 37.8594 81.4274 38.0052 81.3263C38.1511 81.2236 38.224 81.0985 38.224 80.951C38.224 80.8317 38.1792 80.7314 38.0898 80.6502C38.0019 80.569 37.8669 80.5077 37.6846 80.4663L37.0383 80.3246C36.682 80.2434 36.4185 80.1141 36.2478 79.9368C36.0787 79.7595 35.9942 79.5349 35.9942 79.2631C35.9942 79.0378 36.0572 78.8406 36.1831 78.6715C36.3091 78.5025 36.4831 78.3707 36.7052 78.2763C36.9272 78.1802 37.1816 78.1321 37.4683 78.1321C37.8809 78.1321 38.2058 78.2216 38.4427 78.4006C38.6797 78.5779 38.8363 78.8157 38.9126 79.114ZM41.4126 82.0771C41.0431 82.0771 40.7249 81.9934 40.4581 81.826C40.1929 81.657 39.9891 81.4241 39.8466 81.1275C39.7041 80.8308 39.6328 80.4911 39.6328 80.1083C39.6328 79.7205 39.7057 79.3783 39.8516 79.0817C39.9974 78.7834 40.2029 78.5505 40.468 78.3832C40.7332 78.2158 41.0456 78.1321 41.4052 78.1321C41.6952 78.1321 41.9537 78.186 42.1808 78.2937C42.4078 78.3997 42.5909 78.5489 42.7301 78.7411C42.871 78.9334 42.9547 79.1579 42.9812 79.4148H42.2578C42.218 79.2358 42.1269 79.0817 41.9844 78.9524C41.8435 78.8232 41.6546 78.7585 41.4176 78.7585C41.2105 78.7585 41.029 78.8132 40.8732 78.9226C40.7191 79.0303 40.599 79.1844 40.5128 79.3849C40.4266 79.5838 40.3835 79.8191 40.3835 80.0909C40.3835 80.3693 40.4258 80.6096 40.5103 80.8118C40.5948 81.014 40.7141 81.1706 40.8683 81.2816C41.024 81.3926 41.2071 81.4482 41.4176 81.4482C41.5585 81.4482 41.6861 81.4225 41.8004 81.3711C41.9164 81.3181 42.0134 81.2427 42.0913 81.1449C42.1708 81.0471 42.2263 80.9295 42.2578 80.7919H42.9812C42.9547 81.0388 42.8743 81.2592 42.7401 81.4531C42.6058 81.647 42.426 81.7995 42.2006 81.9105C41.9769 82.0215 41.7143 82.0771 41.4126 82.0771ZM43.776 82V78.1818H44.4944V78.7884H44.5342C44.6038 78.5829 44.7264 78.4213 44.9021 78.3036C45.0794 78.1843 45.2799 78.1246 45.5036 78.1246C45.55 78.1246 45.6047 78.1263 45.6677 78.1296C45.7323 78.1329 45.7829 78.1371 45.8193 78.142V78.853C45.7895 78.8447 45.7365 78.8356 45.6602 78.8256C45.584 78.814 45.5078 78.8082 45.4316 78.8082C45.2559 78.8082 45.0993 78.8455 44.9617 78.9201C44.8258 78.993 44.7181 79.0949 44.6386 79.2259C44.559 79.3551 44.5193 79.5026 44.5193 79.6683V82H43.776ZM46.4625 82V78.1818H47.2058V82H46.4625ZM46.8379 77.5927C46.7086 77.5927 46.5976 77.5496 46.5048 77.4634C46.4136 77.3756 46.3681 77.2712 46.3681 77.1502C46.3681 77.0276 46.4136 76.9232 46.5048 76.837C46.5976 76.7492 46.7086 76.7053 46.8379 76.7053C46.9672 76.7053 47.0774 76.7492 47.1685 76.837C47.2613 76.9232 47.3077 77.0276 47.3077 77.1502C47.3077 77.2712 47.2613 77.3756 47.1685 77.4634C47.0774 77.5496 46.9672 77.5927 46.8379 77.5927ZM48.2057 83.4318V78.1818H48.9316V78.8008H48.9937C49.0368 78.7212 49.0989 78.6293 49.1801 78.5249C49.2613 78.4205 49.374 78.3293 49.5182 78.2514C49.6624 78.1719 49.853 78.1321 50.0899 78.1321C50.3982 78.1321 50.6733 78.21 50.9152 78.3658C51.1572 78.5215 51.3469 78.7461 51.4845 79.0394C51.6237 79.3327 51.6933 79.6857 51.6933 80.0984C51.6933 80.511 51.6245 80.8648 51.4869 81.1598C51.3494 81.4531 51.1605 81.6793 50.9202 81.8384C50.6799 81.9959 50.4056 82.0746 50.0974 82.0746C49.8654 82.0746 49.6756 82.0356 49.5281 81.9577C49.3823 81.8799 49.268 81.7887 49.1851 81.6843C49.1022 81.5799 49.0384 81.4871 48.9937 81.4059H48.949V83.4318H48.2057ZM48.934 80.0909C48.934 80.3594 48.973 80.5947 49.0509 80.7969C49.1288 80.9991 49.2414 81.1573 49.3889 81.2717C49.5364 81.3844 49.7171 81.4407 49.9308 81.4407C50.1529 81.4407 50.3385 81.3819 50.4877 81.2642C50.6368 81.1449 50.7495 80.9833 50.8257 80.7795C50.9036 80.5756 50.9426 80.3461 50.9426 80.0909C50.9426 79.839 50.9044 79.6128 50.8282 79.4123C50.7536 79.2118 50.641 79.0535 50.4901 78.9375C50.341 78.8215 50.1546 78.7635 49.9308 78.7635C49.7154 78.7635 49.5331 78.819 49.384 78.93C49.2365 79.0411 49.1246 79.196 49.0484 79.3949C48.9722 79.5937 48.934 79.8258 48.934 80.0909ZM54.3083 78.1818V78.7784H52.2227V78.1818H54.3083ZM52.782 77.267H53.5253V80.8789C53.5253 81.0231 53.5468 81.1316 53.5899 81.2045C53.633 81.2758 53.6885 81.3247 53.7565 81.3512C53.8261 81.3761 53.9015 81.3885 53.9827 81.3885C54.0423 81.3885 54.0945 81.3844 54.1393 81.3761C54.184 81.3678 54.2188 81.3612 54.2437 81.3562L54.3779 81.9702C54.3348 81.9867 54.2735 82.0033 54.194 82.0199C54.1144 82.0381 54.015 82.0481 53.8957 82.0497C53.7001 82.053 53.5178 82.0182 53.3488 81.9453C53.1798 81.8724 53.0431 81.7597 52.9387 81.6072C52.8343 81.4548 52.782 81.2634 52.782 81.033V77.267Z" fill="white"/>
</svg>
