<svg width="174" height="141" viewBox="0 0 174 141" fill="none" xmlns="http://www.w3.org/2000/svg">
<path style="mix-blend-mode:overlay" opacity="0.43" d="M146.683 139.34H23.9772L69.8425 40.0557H100.818L146.683 139.34Z" fill="url(#paint0_linear_220_278)"/>
<path d="M21.3002 111.576L22.8555 104.162L31.0304 102.309" stroke="#283035" stroke-linecap="round" stroke-linejoin="round"/>
<path d="M15.5202 139.979H25.2703C25.6085 139.98 25.9352 139.856 26.1889 139.633C26.4429 139.409 26.6065 139.101 26.6492 138.765L29.2536 118.328H11.5378L14.1423 138.765C14.185 139.1 14.3484 139.409 14.6022 139.632C14.8558 139.856 15.1823 139.979 15.5202 139.979Z" fill="#EAD57D"/>
<path d="M14.248 118.329L16.3143 137.204C16.3568 137.592 16.5411 137.951 16.832 138.212C17.1227 138.472 17.4994 138.617 17.89 138.617H26.6693L26.6504 138.766C26.6077 139.101 26.4441 139.41 26.1901 139.633C25.9363 139.857 25.6097 139.98 25.2715 139.98H15.5214C15.1833 139.98 14.8566 139.857 14.6028 139.633C14.349 139.41 14.1854 139.101 14.1427 138.766L11.5378 118.329H14.248Z" fill="#E5C66E"/>
<path d="M15.5202 139.979H25.2703C25.6085 139.98 25.9352 139.856 26.1889 139.633C26.4429 139.409 26.6065 139.101 26.6492 138.765L29.2536 118.328H11.5378L14.1423 138.765C14.185 139.1 14.3484 139.409 14.6022 139.632C14.8558 139.856 15.1823 139.979 15.5202 139.979Z" stroke="#283035" stroke-linecap="round" stroke-linejoin="round"/>
<path d="M28.5856 134.096L29.8451 124.212H10.946L12.2056 134.096H28.5856Z" fill="#5CBF84"/>
<path d="M28.5856 134.096L29.8451 124.212H10.946L12.2056 134.096H28.5856Z" fill="#4FB277"/>
<path d="M28.5073 132.954L29.5635 124.212H13.7156L14.6886 132.261C14.7118 132.452 14.8042 132.628 14.9484 132.756C15.0925 132.884 15.2786 132.954 15.4712 132.954H28.5073Z" fill="#5CBF84"/>
<path d="M28.5856 134.096L29.8451 124.212H10.946L12.2056 134.096H28.5856Z" stroke="#283035" stroke-linecap="round" stroke-linejoin="round"/>
<path d="M10.3996 118.328H30.3918C31.5981 118.328 32.5761 117.35 32.5761 116.143C32.5761 114.937 31.5981 113.959 30.3918 113.959H10.3996C9.19321 113.959 8.21523 114.937 8.21523 116.143C8.21523 117.35 9.19321 118.328 10.3996 118.328Z" fill="#5CBF84"/>
<path d="M10.3996 118.328H30.3918C31.5981 118.328 32.5761 117.35 32.5761 116.143C32.5761 114.937 31.5981 113.959 30.3918 113.959H10.3996C9.19321 113.959 8.21523 114.937 8.21523 116.143C8.21523 117.35 9.19321 118.328 10.3996 118.328Z" fill="#4FB277"/>
<path d="M12.6586 117.384H30.8632C31.809 117.384 32.5759 116.618 32.5759 115.672C32.5759 114.726 31.809 113.959 30.8632 113.959H12.6586C11.7126 113.959 10.9459 114.726 10.9459 115.672C10.9459 116.618 11.7126 117.384 12.6586 117.384Z" fill="#5CBF84"/>
<path d="M10.3996 118.328H30.3918C31.5981 118.328 32.5761 117.35 32.5761 116.143C32.5761 114.937 31.5981 113.959 30.3918 113.959H10.3996C9.19321 113.959 8.21523 114.937 8.21523 116.143C8.21523 117.35 9.19321 118.328 10.3996 118.328Z" stroke="#283035" stroke-linecap="round" stroke-linejoin="round"/>
<path d="M12.4524 113.959H28.3385L28.0242 111.576H12.767L12.4524 113.959Z" fill="#5CBF84"/>
<path d="M12.767 111.576H17.428L16.3247 113.959H12.4524L12.767 111.576Z" fill="#54AF79"/>
<path d="M12.4524 113.959H28.3385L28.0242 111.576H12.767L12.4524 113.959Z" stroke="#283035" stroke-linecap="round" stroke-linejoin="round"/>
<path d="M46.7454 86.5669H113.82C114.721 86.5669 115.586 86.925 116.223 87.5623C116.86 88.1997 117.218 89.0643 117.218 89.9658V134.234H43.3479V89.9656C43.3479 89.0643 43.706 88.1999 44.343 87.5625C44.98 86.9252 45.8442 86.5671 46.7454 86.5669Z" fill="#D2DCE6"/>
<path d="M46.7454 86.5669H113.82C114.721 86.5669 115.586 86.925 116.223 87.5623C116.86 88.1997 117.218 89.0643 117.218 89.9658V134.234H43.3479V89.9656C43.3479 89.0643 43.706 88.1999 44.343 87.5625C44.98 86.9252 45.8442 86.5671 46.7454 86.5669Z" stroke="#283035" stroke-linecap="round" stroke-linejoin="round"/>
<path d="M111.658 128.729V92.1846H48.9081V128.729H111.658Z" fill="#FF5C5C"/>
<path opacity="0.3" d="M85.33 122.898H95.656" stroke="white" stroke-linecap="round" stroke-linejoin="round"/>
<g opacity="0.3">
<path opacity="0.3" d="M110.504 111.539C110.703 111.526 110.9 111.581 111.064 111.694C111.228 111.807 111.349 111.973 111.407 112.163V109.888C111.189 109.824 110.963 109.792 110.736 109.791H110.504C110.005 109.791 109.755 110.04 109.755 110.54V110.807C109.755 111.289 110.005 111.539 110.504 111.539Z" fill="white"/>
<path opacity="0.3" d="M111.407 122.445C111.348 122.634 111.226 122.798 111.062 122.91C110.899 123.023 110.702 123.077 110.504 123.064C110.005 123.064 109.755 123.314 109.755 123.813V124.081C109.755 124.581 110.005 124.83 110.504 124.83H110.736C110.963 124.829 111.189 124.796 111.407 124.733V122.445Z" fill="white"/>
</g>
<path d="M111.658 128.729V92.1846H48.9081V128.729H111.658Z" stroke="#283035" stroke-linecap="round" stroke-linejoin="round"/>
<path d="M35.1968 134.263H125.37C125.581 134.263 125.783 134.346 125.932 134.495C126.081 134.644 126.164 134.846 126.164 135.057V136.009C126.164 137.062 125.746 138.072 125.001 138.817C124.256 139.562 123.246 139.981 122.193 139.981H38.374C37.3207 139.981 36.3106 139.562 35.5657 138.817C34.8209 138.072 34.4025 137.062 34.4025 136.009V135.057C34.4025 134.846 34.4861 134.644 34.6352 134.495C34.7841 134.346 34.9861 134.263 35.1968 134.263Z" fill="#E5E5E5"/>
<path d="M122.192 138.192H38.3732C37.4208 138.192 36.5004 137.849 35.78 137.226C35.0595 136.603 34.5873 135.742 34.4491 134.799C34.4191 134.882 34.4034 134.969 34.4025 135.057V136.009C34.4025 137.062 34.8209 138.072 35.5657 138.817C36.3106 139.562 37.3207 139.98 38.374 139.98H122.193C123.246 139.98 124.256 139.562 125.001 138.817C125.746 138.072 126.164 137.062 126.164 136.009V135.057C126.163 134.969 126.148 134.882 126.118 134.799C125.98 135.742 125.507 136.603 124.786 137.226C124.065 137.849 123.145 138.192 122.192 138.192Z" fill="#CFD1D0"/>
<path d="M35.1968 134.263H125.37C125.581 134.263 125.783 134.346 125.932 134.495C126.081 134.644 126.164 134.846 126.164 135.057V136.009C126.164 137.062 125.746 138.072 125.001 138.817C124.256 139.562 123.246 139.981 122.193 139.981H38.374C37.3207 139.981 36.3106 139.562 35.5657 138.817C34.8209 138.072 34.4025 137.062 34.4025 136.009V135.057C34.4025 134.846 34.4861 134.644 34.6352 134.495C34.7841 134.346 34.9861 134.263 35.1968 134.263Z" stroke="#283035" stroke-linecap="round" stroke-linejoin="round"/>
<path d="M71.9429 134.233H88.6233C88.6233 134.655 88.4559 135.059 88.158 135.357C87.8599 135.655 87.456 135.822 87.0347 135.822H73.5315C73.1101 135.822 72.706 135.655 72.4081 135.357C72.1103 135.059 71.9429 134.655 71.9429 134.233Z" fill="#686B6D"/>
<path d="M71.9429 134.233H88.6233C88.6233 134.655 88.4559 135.059 88.158 135.357C87.8599 135.655 87.456 135.822 87.0347 135.822H73.5315C73.1101 135.822 72.706 135.655 72.4081 135.357C72.1103 135.059 71.9429 134.655 71.9429 134.233Z" stroke="#283035" stroke-linecap="round" stroke-linejoin="round"/>
<path d="M80.1268 90.8896C81.0041 90.8896 81.7154 90.1783 81.7154 89.301C81.7154 88.4237 81.0041 87.7124 80.1268 87.7124C79.2493 87.7124 78.5382 88.4237 78.5382 89.301C78.5382 90.1783 79.2493 90.8896 80.1268 90.8896Z" fill="#686B6D"/>
<path d="M80.1268 90.8896C81.0041 90.8896 81.7154 90.1783 81.7154 89.301C81.7154 88.4237 81.0041 87.7124 80.1268 87.7124C79.2493 87.7124 78.5382 88.4237 78.5382 89.301C78.5382 90.1783 79.2493 90.8896 80.1268 90.8896Z" stroke="#283035" stroke-linecap="round" stroke-linejoin="round"/>
<path d="M128.248 140C128.257 138.479 128.867 137.023 129.946 135.95C131.024 134.878 132.483 134.276 134.004 134.276C135.525 134.276 136.984 134.878 138.063 135.95C139.142 137.023 139.752 138.479 139.761 140H128.248Z" fill="#E5E5E5"/>
<path d="M134.004 138.18C134.828 138.188 135.643 138.02 136.396 137.686C137.149 137.353 137.821 136.862 138.368 136.247C137.828 135.618 137.159 135.114 136.406 134.767C135.652 134.422 134.833 134.242 134.004 134.242C133.175 134.242 132.356 134.422 131.603 134.767C130.85 135.114 130.18 135.618 129.64 136.247C130.188 136.862 130.86 137.353 131.613 137.686C132.366 138.02 133.181 138.188 134.004 138.18Z" fill="#CFD1D0"/>
<path d="M128.248 140C128.257 138.479 128.867 137.023 129.946 135.95C131.024 134.878 132.483 134.276 134.004 134.276C135.525 134.276 136.984 134.878 138.063 135.95C139.142 137.023 139.752 138.479 139.761 140H128.248Z" stroke="#283035" stroke-linecap="round" stroke-linejoin="round"/>
<g style="mix-blend-mode:multiply" opacity="0.14">
<path d="M89.6972 99.2642H59.5168C58.6385 99.2642 57.9266 99.9764 57.9266 100.855V124.288C57.9266 125.166 58.6385 125.878 59.5168 125.878H89.6972C90.5755 125.878 91.2874 125.166 91.2874 124.288V100.855C91.2874 99.9764 90.5755 99.2642 89.6972 99.2642Z" fill="black"/>
</g>
<path d="M88.1417 97.874H57.9614C57.083 97.874 56.3712 98.5862 56.3712 99.4645V122.898C56.3712 123.776 57.083 124.488 57.9614 124.488H88.1417C89.02 124.488 89.7319 123.776 89.7319 122.898V99.4645C89.7319 98.5862 89.02 97.874 88.1417 97.874Z" fill="#353F49"/>
<path d="M88.1417 97.874H57.9614C57.083 97.874 56.3712 98.5862 56.3712 99.4645V122.898C56.3712 123.776 57.083 124.488 57.9614 124.488H88.1417C89.02 124.488 89.7319 123.776 89.7319 122.898V99.4645C89.7319 98.5862 89.02 97.874 88.1417 97.874Z" stroke="#283035" stroke-linecap="round" stroke-linejoin="round"/>
<path d="M57.9612 97.874H88.1417C88.5635 97.874 88.968 98.0416 89.2661 98.3399C89.5643 98.6381 89.7319 99.0424 89.7319 99.4642V101.846H56.3712V99.4642C56.3712 99.0426 56.5386 98.6381 56.8368 98.3399C57.1351 98.0416 57.5394 97.8742 57.9612 97.874Z" fill="#EAEEEF"/>
<path d="M57.9612 97.874H88.1417C88.5635 97.874 88.968 98.0416 89.2661 98.3399C89.5643 98.6381 89.7319 99.0424 89.7319 99.4642V101.846H56.3712V99.4642C56.3712 99.0426 56.5386 98.6381 56.8368 98.3399C57.1351 98.0416 57.5394 97.8742 57.9612 97.874Z" stroke="#283035" stroke-linecap="round" stroke-linejoin="round"/>
<path opacity="0.35" d="M59.2173 100.48C59.5601 100.48 59.8379 100.203 59.8379 99.8598C59.8379 99.5171 59.5601 99.2393 59.2173 99.2393C58.8746 99.2393 58.5968 99.5171 58.5968 99.8598C58.5968 100.203 58.8746 100.48 59.2173 100.48Z" fill="#283035"/>
<path opacity="0.35" d="M61.1699 100.48C61.5126 100.48 61.7904 100.203 61.7904 99.8598C61.7904 99.5171 61.5126 99.2393 61.1699 99.2393C60.8271 99.2393 60.5493 99.5171 60.5493 99.8598C60.5493 100.203 60.8271 100.48 61.1699 100.48Z" fill="#283035"/>
<path opacity="0.35" d="M63.0234 100.48C63.3662 100.48 63.644 100.203 63.644 99.8598C63.644 99.5171 63.3662 99.2393 63.0234 99.2393C62.6807 99.2393 62.4029 99.5171 62.4029 99.8598C62.4029 100.203 62.6807 100.48 63.0234 100.48Z" fill="#283035"/>
<path d="M57.9266 103.236H60.1109" stroke="#46BB86" stroke-miterlimit="10"/>
<path d="M60.9052 103.236H66.8625" stroke="#46BB86" stroke-miterlimit="10"/>
<path d="M57.9266 104.825H66.8625" stroke="#389ABE" stroke-miterlimit="10"/>
<path d="M59.7137 106.414H64.0824" stroke="#E5C689" stroke-miterlimit="10"/>
<path d="M64.8767 106.414H69.6426" stroke="#F2F3F4" stroke-miterlimit="10"/>
<path d="M62.0966 108.003H71.2311" stroke="#F2F3F4" stroke-miterlimit="10"/>
<path d="M62.0966 109.592H68.8482" stroke="#FFA49F" stroke-miterlimit="10"/>
<path d="M59.7137 111.181H69.6425" stroke="#F2F3F4" stroke-miterlimit="10"/>
<path d="M57.9266 112.571H63.2881" stroke="#389ABE" stroke-miterlimit="10"/>
<g opacity="0.3">
<path opacity="0.3" d="M104.122 120.265C104.122 119.48 103.819 118.928 103.213 118.589C102.784 118.357 102.606 118.178 102.606 117.768V117.073C102.606 116.591 102.82 116.484 103.195 116.234C103.819 115.967 104.122 115.396 104.122 114.539V113.023C104.122 111.81 104.568 110.917 105.21 110.543C105.691 110.2 106.262 110.008 106.852 109.99H107.083C107.583 109.99 107.832 110.24 107.833 110.739V111.006C107.833 111.487 107.583 111.737 107.083 111.737C106.388 111.737 106.049 112.237 106.049 113.254V115.127C106.067 115.582 105.953 116.032 105.722 116.424C105.491 116.816 105.153 117.134 104.747 117.339L104.586 117.393V117.428C104.769 117.482 104.939 117.574 105.086 117.696C105.532 117.963 106.049 118.588 106.049 119.676V121.764C106.049 122.763 106.388 123.262 107.083 123.262C107.583 123.262 107.832 123.512 107.833 124.012V124.279C107.833 124.779 107.583 125.029 107.083 125.029H106.852C106.262 125.011 105.691 124.818 105.21 124.476C104.568 124.101 104.122 123.191 104.122 121.996V120.265Z" fill="white"/>
</g>
<path d="M14.6203 129.83L15.0174 129.444C16.5244 130.665 18.4055 131.332 20.3456 131.332C22.2855 131.332 24.1666 130.665 25.6738 129.444L26.1702 129.929" stroke="#283035" stroke-linecap="round" stroke-linejoin="round"/>
<path d="M19.1282 127.827C19.1282 127.602 19.0387 127.386 18.8792 127.226C18.7198 127.067 18.5035 126.977 18.2781 126.977C18.0528 126.977 17.8365 127.067 17.677 127.226C17.5176 127.386 17.428 127.602 17.428 127.827V128.606" stroke="#283035" stroke-linecap="round" stroke-linejoin="round"/>
<path d="M21.6628 127.827C21.6628 127.602 21.7524 127.386 21.9118 127.226C22.0711 127.067 22.2873 126.977 22.5129 126.977C22.7383 126.977 22.9545 127.067 23.114 127.226C23.2734 127.386 23.363 127.602 23.363 127.827V128.606" stroke="#283035" stroke-linecap="round" stroke-linejoin="round"/>
<path d="M165.448 137.822L163.481 138.095L164.738 139.925L165.448 137.822Z" fill="#E5E5E5"/>
<path d="M165.448 137.822L163.481 138.095L164.738 139.925L165.448 137.822Z" stroke="#283035" stroke-linecap="round" stroke-linejoin="round"/>
<path d="M159.922 114.18H144.473C143.475 114.18 142.666 114.989 142.666 115.987V138.192C142.666 139.19 143.475 139.999 144.473 139.999H159.922C160.92 139.999 161.729 139.19 161.729 138.192V115.987C161.729 114.989 160.92 114.18 159.922 114.18Z" fill="#E5E5E5"/>
<path d="M159.922 114.18H159.693C159.726 114.316 159.743 114.456 159.743 114.597V136.802C159.743 137.281 159.553 137.741 159.214 138.08C158.875 138.419 158.415 138.609 157.936 138.609H142.717C142.811 139.005 143.035 139.357 143.354 139.609C143.673 139.862 144.067 139.999 144.474 139.999H159.923C160.402 139.999 160.862 139.809 161.201 139.47C161.54 139.131 161.73 138.671 161.73 138.192V115.987C161.73 115.75 161.683 115.514 161.593 115.295C161.502 115.076 161.368 114.876 161.201 114.709C161.033 114.541 160.833 114.408 160.614 114.317C160.394 114.226 160.159 114.179 159.922 114.18Z" fill="#CFD1D0"/>
<path d="M159.922 114.18H144.473C143.475 114.18 142.666 114.989 142.666 115.987V138.192C142.666 139.19 143.475 139.999 144.473 139.999H159.922C160.92 139.999 161.729 139.19 161.729 138.192V115.987C161.729 114.989 160.92 114.18 159.922 114.18Z" stroke="#283035" stroke-linecap="round" stroke-linejoin="round"/>
<path d="M155.375 112.681H153.786V112.085C153.786 111.664 153.619 111.26 153.321 110.962C153.023 110.664 152.619 110.497 152.197 110.497C151.776 110.497 151.372 110.664 151.074 110.962C150.776 111.26 150.609 111.664 150.609 112.085V112.681H149.02C148.599 112.681 148.195 112.849 147.897 113.147C147.599 113.445 147.432 113.849 147.432 114.27C147.432 114.692 147.599 115.096 147.897 115.394C148.195 115.692 148.599 115.859 149.02 115.859H155.375C155.796 115.859 156.2 115.692 156.498 115.394C156.796 115.096 156.963 114.692 156.963 114.27C156.963 113.849 156.796 113.445 156.498 113.147C156.2 112.849 155.796 112.681 155.375 112.681Z" fill="#F7B66F"/>
<path d="M156.113 112.864C156.177 113.1 156.186 113.347 156.14 113.586C156.093 113.826 155.991 114.051 155.843 114.245C155.695 114.439 155.503 114.596 155.284 114.703C155.065 114.811 154.824 114.867 154.58 114.866H148.226C147.969 114.866 147.715 114.803 147.488 114.683C147.579 115.02 147.778 115.318 148.055 115.531C148.332 115.743 148.671 115.858 149.02 115.859H155.375C155.73 115.858 156.074 115.739 156.353 115.52C156.633 115.301 156.831 114.995 156.916 114.65C157.001 114.306 156.968 113.943 156.822 113.619C156.677 113.295 156.427 113.029 156.113 112.864Z" fill="#EDA762"/>
<path d="M152.992 111.092V111.688H153.734C153.679 111.473 153.579 111.273 153.441 111.099C153.304 110.925 153.132 110.782 152.936 110.679C152.972 110.814 152.991 110.953 152.992 111.092Z" fill="#EDA762"/>
<path d="M155.375 112.681H153.786V112.085C153.786 111.664 153.619 111.26 153.321 110.962C153.023 110.664 152.619 110.497 152.197 110.497C151.776 110.497 151.372 110.664 151.074 110.962C150.776 111.26 150.609 111.664 150.609 112.085V112.681H149.02C148.599 112.681 148.195 112.849 147.897 113.147C147.599 113.445 147.432 113.849 147.432 114.27C147.432 114.692 147.599 115.096 147.897 115.394C148.195 115.692 148.599 115.859 149.02 115.859H155.375C155.796 115.859 156.2 115.692 156.498 115.394C156.796 115.096 156.963 114.692 156.963 114.27C156.963 113.849 156.796 113.445 156.498 113.147C156.2 112.849 155.796 112.681 155.375 112.681Z" stroke="#283035" stroke-linecap="round" stroke-linejoin="round"/>
<path d="M152.197 121.619C153.111 121.619 153.852 120.878 153.852 119.964C153.852 119.05 153.111 118.309 152.197 118.309C151.284 118.309 150.543 119.05 150.543 119.964C150.543 120.878 151.284 121.619 152.197 121.619Z" fill="#8EAFBF"/>
<path d="M152.197 121.619C153.111 121.619 153.852 120.878 153.852 119.964C153.852 119.05 153.111 118.309 152.197 118.309C151.284 118.309 150.543 119.05 150.543 119.964C150.543 120.878 151.284 121.619 152.197 121.619Z" stroke="#283035" stroke-linecap="round" stroke-linejoin="round"/>
<path d="M145.887 125.062H149.859" stroke="#283035" stroke-linecap="round" stroke-linejoin="round"/>
<path d="M145.887 130.458H149.859" stroke="#283035" stroke-linecap="round" stroke-linejoin="round"/>
<path d="M145.887 135.854H149.859" stroke="#283035" stroke-linecap="round" stroke-linejoin="round"/>
<path d="M152.483 124.849L153.518 126.226L156.617 123.896" stroke="#8BAFC1" stroke-linecap="round" stroke-linejoin="round"/>
<path d="M152.483 130.245L153.518 131.622L156.617 129.293" stroke="#8BAFC1" stroke-linecap="round" stroke-linejoin="round"/>
<path d="M163.696 125.232L161.729 125.506L163.48 138.096L165.447 137.822L163.696 125.232Z" fill="#3BBC88"/>
<path d="M163.696 125.232L161.729 125.506L163.48 138.096L165.447 137.822L163.696 125.232Z" stroke="#283035" stroke-linecap="round" stroke-linejoin="round"/>
<path d="M162.969 123.232L161.79 123.396L162.064 125.362L163.243 125.198L162.969 123.232Z" fill="#E5E5E5"/>
<path d="M162.969 123.232L161.79 123.396L162.064 125.362L163.243 125.198L162.969 123.232Z" stroke="#283035" stroke-linecap="round" stroke-linejoin="round"/>
<path d="M165.474 130.199C165.252 129.833 165.094 129.431 165.008 129.011C164.789 127.932 165.33 127.315 165.037 126.701C164.921 126.456 164.864 126.122 163.987 125.995" stroke="#283035" stroke-linecap="round" stroke-linejoin="round"/>
<path d="M167.887 140H173" stroke="#283035" stroke-linecap="round" stroke-linejoin="round"/>
<path d="M31.5807 140H165.653" stroke="#283035" stroke-linecap="round" stroke-linejoin="round"/>
<path d="M7.83439 140H29.254" stroke="#283035" stroke-linecap="round" stroke-linejoin="round"/>
<path d="M1 140H5.60041" stroke="#283035" stroke-linecap="round" stroke-linejoin="round"/>
<path d="M85.33 45.2009C87.9622 45.2009 90.0959 43.0668 90.0959 40.4342C90.0959 37.8016 87.9622 35.6675 85.33 35.6675C82.6979 35.6675 80.5642 37.8016 80.5642 40.4342C80.5642 43.0668 82.6979 45.2009 85.33 45.2009Z" fill="white"/>
<path d="M71.649 41.5102C71.4067 41.5094 71.1672 41.4571 70.9464 41.357C70.7256 41.2567 70.5288 41.1109 70.3686 40.929C70.2083 40.7471 70.0884 40.5332 70.0169 40.3016C69.9454 40.07 69.9238 39.8257 69.9535 39.5852C70.8799 31.7185 77.4109 25.6211 85.3301 25.6211C93.2493 25.6211 99.7803 31.7185 100.706 39.5852C100.736 39.8259 100.715 40.07 100.643 40.3018C100.572 40.5334 100.452 40.7473 100.291 40.9292C100.131 41.1111 99.9342 41.2569 99.7133 41.3572C99.4925 41.4573 99.253 41.5094 99.0106 41.5102H71.649Z" fill="#F7B66F"/>
<path d="M87.713 25.8086C87.6617 25.8004 87.6099 25.7947 87.5585 25.7871C87.378 25.7605 87.1965 25.7365 87.014 25.7162C86.931 25.7069 86.8478 25.6993 86.7644 25.6914C86.6131 25.6771 86.4615 25.6642 86.3098 25.6555C86.2217 25.6503 86.1341 25.6437 86.0457 25.6396C85.8084 25.6284 85.5691 25.6211 85.3308 25.6211C85.0926 25.6211 84.8543 25.6282 84.6184 25.6396C84.5093 25.6447 84.4011 25.6533 84.2927 25.6606C84.1755 25.6688 84.0584 25.6771 83.9418 25.688C83.7988 25.7009 83.6567 25.7164 83.5149 25.7335C83.4456 25.7418 83.3759 25.7512 83.3076 25.7605C76.1541 26.7184 70.5338 32.6794 69.9013 40.1101C69.8856 40.2877 69.9069 40.4666 69.964 40.6357C70.021 40.8045 70.1128 40.9598 70.2329 41.0913C70.3533 41.223 70.4994 41.3282 70.6624 41.4003C70.8257 41.4724 71.0018 41.5098 71.1801 41.5101H99.4808C99.6575 41.5107 99.8325 41.4746 99.9947 41.4041C100.157 41.3338 100.303 41.2305 100.423 41.101C100.543 40.9713 100.635 40.8184 100.694 40.6513C100.752 40.4845 100.775 40.3073 100.761 40.131C100.148 32.8149 94.7015 26.9157 87.713 25.8086ZM75.2074 37.1266C75.8828 34.6715 77.1434 32.4168 78.8809 30.5558C80.6184 28.6948 82.7813 27.2831 85.1839 26.4412C87.5887 27.2813 89.7537 28.6924 91.4933 30.5537C93.2328 32.4149 94.4947 34.6703 95.1711 37.1266C95.2569 37.4439 95.2684 37.777 95.2044 38.0996C95.1405 38.4221 95.0031 38.7258 94.8029 38.9866C94.6026 39.2474 94.3448 39.4585 94.0497 39.6033C93.7545 39.7483 93.43 39.8229 93.1011 39.8219H77.2776C76.9488 39.8231 76.6241 39.7483 76.3288 39.6035C76.0337 39.4585 75.776 39.2475 75.5756 38.9868C75.3752 38.7258 75.2378 38.4223 75.1739 38.0998C75.1101 37.777 75.1215 37.4439 75.2074 37.1266Z" fill="#EFAA65"/>
<path d="M71.6623 41.5102C71.4183 41.5096 71.177 41.4569 70.9546 41.3562C70.7324 41.2553 70.5338 41.1086 70.3726 40.9252C70.2111 40.7421 70.0904 40.5268 70.0183 40.2934C69.9462 40.0601 69.9246 39.8142 69.9546 39.5719C70.8873 31.7108 77.4155 25.6211 85.3301 25.6211C93.2447 25.6211 99.7729 31.7108 100.705 39.5719C100.735 39.8142 100.713 40.0601 100.641 40.2934C100.569 40.5268 100.448 40.7421 100.287 40.9254C100.126 41.1086 99.9272 41.2555 99.7048 41.3562C99.4824 41.4571 99.2413 41.5096 98.9971 41.5102H71.6623Z" stroke="#283035" stroke-linecap="round" stroke-linejoin="round"/>
<path d="M85.33 0V25.6211" stroke="#283035" stroke-linejoin="round"/>
<defs>
<linearGradient id="paint0_linear_220_278" x1="85.3301" y1="38.6751" x2="85.3301" y2="142.844" gradientUnits="userSpaceOnUse">
<stop stop-color="white"/>
<stop offset="0.093" stop-color="white" stop-opacity="0.864"/>
<stop offset="0.284" stop-color="white" stop-opacity="0.605"/>
<stop offset="0.466" stop-color="white" stop-opacity="0.389"/>
<stop offset="0.633" stop-color="white" stop-opacity="0.221"/>
<stop offset="0.784" stop-color="white" stop-opacity="0.1"/>
<stop offset="0.911" stop-color="white" stop-opacity="0.026"/>
<stop offset="1" stop-color="white" stop-opacity="0"/>
</linearGradient>
</defs>
</svg>
