<svg width="313" height="183" viewBox="0 0 313 183" fill="none" xmlns="http://www.w3.org/2000/svg">
<path opacity="0.23" d="M301.765 182.998H10.5882C4.76471 182.998 0 178.243 0 172.432C0 166.62 4.76471 161.865 10.5882 161.865H301.765C307.588 161.865 312.353 166.62 312.353 172.432C312.353 178.243 307.588 182.998 301.765 182.998Z" fill="#1C1C1C"/>
<path d="M177.618 148.817H34.6765C31.7647 148.817 29.3824 146.44 29.3824 143.534V38.9258C29.3824 36.02 31.7647 33.6426 34.6765 33.6426H177.618C180.529 33.6426 182.912 36.02 182.912 38.9258V143.534C182.912 146.44 180.529 148.817 177.618 148.817Z" fill="#B4AAC1"/>
<path d="M32.5588 140.31V38.9248C32.5588 37.7625 33.5118 36.8115 34.6765 36.8115H177.618C178.782 36.8115 179.735 37.7625 179.735 38.9248V140.31C179.735 141.473 178.782 142.424 177.618 142.424H34.6765C33.5118 142.424 32.5588 141.525 32.5588 140.31Z" fill="#D3D3D1"/>
<path d="M177.618 148.817H34.6765C31.7647 148.817 29.3824 146.44 29.3824 143.534V38.9258C29.3824 36.02 31.7647 33.6426 34.6765 33.6426H177.618C180.529 33.6426 182.912 36.02 182.912 38.9258V143.534C182.912 146.44 180.529 148.817 177.618 148.817Z" stroke="#0C1740" stroke-width="6" stroke-miterlimit="10" stroke-linecap="round" stroke-linejoin="round"/>
<path d="M38.9118 123.774V46.6387C38.9118 44.3141 40.8176 42.4121 43.1471 42.4121H169.147C171.476 42.4121 173.382 44.3141 173.382 46.6387V123.774C173.382 126.099 171.476 128.001 169.147 128.001H43.1471C40.8176 128.001 38.9118 126.099 38.9118 123.774Z" fill="#B4AAC1"/>
<path d="M43.1471 125.887C41.9824 125.887 41.0294 124.936 41.0294 123.774V46.6387C41.0294 45.4764 41.9824 44.5254 43.1471 44.5254H169.147C170.312 44.5254 171.265 45.4764 171.265 46.6387V123.774C171.265 124.936 170.312 125.887 169.147 125.887H43.1471Z" fill="#0C1740"/>
<g opacity="0.63">
<g opacity="0.63">
<path opacity="0.63" d="M117.159 84.1514C113.559 82.4079 109.906 83.0948 106.306 83.9401C106.306 80.3475 106.306 76.702 106.306 73.1094C109.906 72.2641 113.559 71.5773 117.159 73.3208C117.159 76.9134 117.159 80.5588 117.159 84.1514Z" fill="#4988E2"/>
<path opacity="0.63" d="M117.159 96.7784C113.559 95.0349 109.906 95.7217 106.306 96.567C106.306 92.9744 106.306 89.329 106.306 85.7364C109.906 84.8911 113.559 84.2043 117.159 85.9477C117.159 89.5403 117.159 93.1329 117.159 96.7784Z" fill="#4988E2"/>
<path opacity="0.63" d="M104.506 96.9892C100.906 97.8346 97.2529 98.5214 93.6529 96.7779C93.6529 93.1853 93.6529 89.5399 93.6529 85.9473C97.2529 87.6907 100.906 87.0039 104.506 86.1586C104.506 89.7512 104.506 93.3438 104.506 96.9892Z" fill="#4988E2"/>
<path opacity="0.63" d="M104.506 84.3633C100.906 85.2086 97.2529 85.8954 93.6529 84.1519C93.6529 80.5593 93.6529 76.9139 93.6529 73.3213C97.2529 75.0648 100.906 74.3779 104.506 73.5326C104.506 77.1252 104.506 80.7707 104.506 84.3633Z" fill="#4988E2"/>
</g>
</g>
<path d="M116.312 148.816H95.9294C95.9294 155.79 89.0471 161.549 80.1 162.077L72.5294 162.5C68.5059 162.711 65.3294 165.987 65.3294 169.949H146.859C146.859 165.987 143.735 162.711 139.659 162.5L132.088 162.077C123.247 161.549 116.312 155.79 116.312 148.816Z" fill="#B4AAC1"/>
<path d="M80.1529 162.077L72.5824 162.5C68.5588 162.711 65.3824 165.986 65.3824 169.949H146.912C146.912 165.986 143.788 162.711 139.712 162.5L132.141 162.077C131.135 162.024 130.129 161.866 129.124 161.707H83.1177C82.1647 161.866 81.1588 162.024 80.1529 162.077Z" fill="#D3D3D1"/>
<path d="M119.488 156.477C117.529 154.311 116.365 151.669 116.365 148.816H95.9824C95.9824 151.669 94.8176 154.311 92.8588 156.477H119.488Z" fill="#958BA5"/>
<path d="M116.312 148.816H95.9294C95.9294 155.79 89.0471 161.549 80.1 162.077L72.5294 162.5C68.5059 162.711 65.3294 165.987 65.3294 169.949H146.859C146.859 165.987 143.735 162.711 139.659 162.5L132.088 162.077C123.247 161.549 116.312 155.79 116.312 148.816Z" stroke="#0C1740" stroke-width="6" stroke-miterlimit="10" stroke-linecap="round" stroke-linejoin="round"/>
<path d="M269.947 162.553H200.065C197.735 162.553 195.829 160.651 195.829 158.326V7.22562C195.829 4.90099 197.735 2.99902 200.065 2.99902H269.947C272.277 2.99902 274.182 4.90099 274.182 7.22562V158.326C274.182 160.651 272.277 162.553 269.947 162.553Z" fill="#364477"/>
<path d="M269.947 162.553H200.065C197.735 162.553 195.829 160.651 195.829 158.326V7.22562C195.829 4.90099 197.735 2.99902 200.065 2.99902H269.947C272.277 2.99902 274.182 4.90099 274.182 7.22562V158.326C274.182 160.651 272.277 162.553 269.947 162.553Z" stroke="#0C1740" stroke-width="6" stroke-miterlimit="10" stroke-linecap="round" stroke-linejoin="round"/>
<path d="M235.006 157.27C216.318 157.27 201.124 142.107 201.124 123.457V8.81055C201.124 8.49356 201.335 8.28223 201.653 8.28223H268.359C268.677 8.28223 268.888 8.49356 268.888 8.81055V123.457C268.888 142.107 253.694 157.27 235.006 157.27Z" fill="#3E5080"/>
<path d="M201.124 20.1689V116.324C201.124 135.291 216.318 150.718 235.006 150.718C253.694 150.718 268.888 135.291 268.888 116.324V20.1689H201.124Z" fill="#364477"/>
<path d="M235.006 157.27C216.318 157.27 201.124 142.107 201.124 123.457V8.81055C201.124 8.49356 201.335 8.28223 201.653 8.28223H268.359C268.677 8.28223 268.888 8.49356 268.888 8.81055V123.457C268.888 142.107 253.694 157.27 235.006 157.27Z" stroke="#0C1740" stroke-width="3" stroke-miterlimit="10" stroke-linecap="round" stroke-linejoin="round"/>
<path d="M235.006 144.59C216.318 144.59 201.124 129.427 201.124 110.777V8.81055C201.124 8.49356 201.335 8.28223 201.653 8.28223H268.359C268.677 8.28223 268.888 8.49356 268.888 8.81055V110.777C268.888 129.427 253.694 144.59 235.006 144.59Z" fill="#485D8C"/>
<path d="M235.006 144.59C216.318 144.59 201.124 129.427 201.124 110.777V8.81055C201.124 8.49356 201.335 8.28223 201.653 8.28223H268.359C268.677 8.28223 268.888 8.49356 268.888 8.81055V110.777C268.888 129.427 253.694 144.59 235.006 144.59Z" stroke="#0C1740" stroke-width="3" stroke-miterlimit="10" stroke-linecap="round" stroke-linejoin="round"/>
<path d="M264.653 162.553H205.359V169.949H264.653V162.553Z" fill="#263866"/>
<path d="M264.653 162.553H205.359V166.251H264.653V162.553Z" fill="#1B2F5B"/>
<path d="M264.653 162.553H205.359V169.949H264.653V162.553Z" stroke="#0C1740" stroke-width="6" stroke-miterlimit="10" stroke-linecap="round" stroke-linejoin="round"/>
<path d="M262.271 26.4039H207.741C206.418 26.4039 205.359 25.3473 205.359 24.0264V15.3091C205.359 13.9883 206.418 12.9316 207.741 12.9316H262.271C263.594 12.9316 264.653 13.9883 264.653 15.3091V24.0264C264.653 25.3473 263.594 26.4039 262.271 26.4039Z" fill="#364477"/>
<path d="M262.271 26.4039H207.741C206.418 26.4039 205.359 25.3473 205.359 24.0264V15.3091C205.359 13.9883 206.418 12.9316 207.741 12.9316H262.271C263.594 12.9316 264.653 13.9883 264.653 15.3091V24.0264C264.653 25.3473 263.594 26.4039 262.271 26.4039Z" stroke="#0C1740" stroke-width="2" stroke-miterlimit="10" stroke-linecap="round" stroke-linejoin="round"/>
<path d="M262.271 45.7934H225.424C224.1 45.7934 223.041 44.7368 223.041 43.416V37.3931C223.041 36.0723 224.1 35.0156 225.424 35.0156H262.271C263.594 35.0156 264.653 36.0723 264.653 37.3931V43.416C264.653 44.7368 263.594 45.7934 262.271 45.7934Z" fill="#364477"/>
<path d="M262.271 45.7934H225.424C224.1 45.7934 223.041 44.7368 223.041 43.416V37.3931C223.041 36.0723 224.1 35.0156 225.424 35.0156H262.271C263.594 35.0156 264.653 36.0723 264.653 37.3931V43.416C264.653 44.7368 263.594 45.7934 262.271 45.7934Z" stroke="#0C1740" stroke-width="2" stroke-miterlimit="10" stroke-linecap="round" stroke-linejoin="round"/>
<path d="M235.959 125.781C241.164 125.781 245.382 121.57 245.382 116.377C245.382 111.183 241.164 106.973 235.959 106.973C230.754 106.973 226.535 111.183 226.535 116.377C226.535 121.57 230.754 125.781 235.959 125.781Z" fill="#5873A3"/>
<path d="M263.7 75.6437H206.312C205.782 75.6437 205.359 75.221 205.359 74.6927V61.8016C205.359 61.2732 205.782 60.8506 206.312 60.8506H263.7C264.229 60.8506 264.653 61.2732 264.653 61.8016V74.6927C264.653 75.221 264.229 75.6437 263.7 75.6437Z" fill="#364477"/>
<path d="M235.006 95.9313C238.018 95.9313 240.459 93.4947 240.459 90.4896C240.459 87.484 238.018 85.0479 235.006 85.0479C231.995 85.0479 229.553 87.484 229.553 90.4896C229.553 93.4947 231.995 95.9313 235.006 95.9313Z" fill="#0C1740"/>
<path d="M235.006 95.5089C237.784 95.5089 240.035 93.2619 240.035 90.4898C240.035 87.7177 237.784 85.4707 235.006 85.4707C232.228 85.4707 229.977 87.7177 229.977 90.4898C229.977 93.2619 232.228 95.5089 235.006 95.5089Z" fill="#1F2F63"/>
<path d="M257.347 70.0967H247.394C247.076 70.0967 246.812 69.8325 246.812 69.5155V66.9796C246.812 66.6626 247.076 66.3984 247.394 66.3984H257.347C257.665 66.3984 257.929 66.6626 257.929 66.9796V69.5155C257.929 69.8325 257.665 70.0967 257.347 70.0967Z" fill="#0C1740"/>
<path d="M247.341 68.1938V66.9786C247.341 66.9258 247.341 66.9258 247.394 66.9258H257.347C257.4 66.9258 257.4 66.9258 257.4 66.9786V68.1938C257.4 68.2466 257.4 68.2466 257.347 68.2466L247.341 68.1938C247.394 68.2466 247.341 68.2466 247.341 68.1938Z" fill="#485D8C"/>
<path d="M243.741 70.0967H233.788C233.471 70.0967 233.206 69.8325 233.206 69.5155V66.9796C233.206 66.6626 233.471 66.3984 233.788 66.3984H243.741C244.059 66.3984 244.324 66.6626 244.324 66.9796V69.5155C244.324 69.8325 244.059 70.0967 243.741 70.0967Z" fill="#0C1740"/>
<path d="M233.735 68.1938V66.9786C233.735 66.9258 233.735 66.9258 233.788 66.9258H243.741C243.794 66.9258 243.794 66.9258 243.794 66.9786V68.1938C243.794 68.2466 243.794 68.2466 243.741 68.2466L233.735 68.1938C233.735 68.2466 233.735 68.2466 233.735 68.1938Z" fill="#485D8C"/>
<path opacity="0.51" d="M163.641 138.145C165.396 138.145 166.818 136.725 166.818 134.975C166.818 133.224 165.396 131.805 163.641 131.805C161.887 131.805 160.465 133.224 160.465 134.975C160.465 136.725 161.887 138.145 163.641 138.145Z" fill="#0C1740"/>
<path d="M163.641 137.933C165.279 137.933 166.606 136.608 166.606 134.974C166.606 133.34 165.279 132.016 163.641 132.016C162.004 132.016 160.676 133.34 160.676 134.974C160.676 136.608 162.004 137.933 163.641 137.933Z" fill="white"/>
<path opacity="0.51" d="M156.282 136.559C157.16 136.559 157.871 135.849 157.871 134.974C157.871 134.098 157.16 133.389 156.282 133.389C155.405 133.389 154.694 134.098 154.694 134.974C154.694 135.849 155.405 136.559 156.282 136.559Z" fill="#0C1740"/>
<path d="M156.282 136.453C157.101 136.453 157.765 135.79 157.765 134.973C157.765 134.157 157.101 133.494 156.282 133.494C155.463 133.494 154.8 134.157 154.8 134.973C154.8 135.79 155.463 136.453 156.282 136.453Z" fill="white"/>
<g opacity="0.49">
<path opacity="0.49" d="M103.452 134.11L102.367 135.194L106.672 139.49L107.758 138.407L103.452 134.11Z" fill="#0C1740"/>
<path opacity="0.49" d="M105.584 131.973L103.45 134.102L104.536 135.185L106.67 133.056L105.584 131.973Z" fill="#0C1740"/>
<path opacity="0.49" d="M108.815 135.191L106.681 137.321L107.767 138.404L109.9 136.275L108.815 135.191Z" fill="#0C1740"/>
<path opacity="0.49" d="M107.199 133.62L105.065 135.749L106.151 136.833L108.285 134.704L107.199 133.62Z" fill="#0C1740"/>
</g>
<path d="M232.239 114.15L230.741 115.645L236.731 121.622L238.228 120.128L232.239 114.15Z" fill="#485D8C"/>
<path d="M235.228 111.157L232.233 114.146L233.731 115.64L236.725 112.652L235.228 111.157Z" fill="#485D8C"/>
<path d="M239.693 115.678L236.699 118.666L238.196 120.161L241.191 117.172L239.693 115.678Z" fill="#485D8C"/>
<path d="M237.442 113.399L234.447 116.388L235.945 117.882L238.939 114.894L237.442 113.399Z" fill="#485D8C"/>
<path d="M260.365 41.989H226.588C226.218 41.989 225.953 41.672 225.953 41.355V39.0832C225.953 38.7134 226.271 38.4492 226.588 38.4492H260.365C260.735 38.4492 261 38.7662 261 39.0832V41.355C261.053 41.7248 260.735 41.989 260.365 41.989Z" fill="#0C1740"/>
<path d="M254.224 43.0987H246.388C244.8 43.0987 243.477 41.7779 243.477 40.1929C243.477 38.6079 244.8 37.2871 246.388 37.2871H254.224C255.812 37.2871 257.135 38.6079 257.135 40.1929C257.135 41.7779 255.865 43.0987 254.224 43.0987Z" fill="#0C1740"/>
<path d="M226.959 40.1928C226.959 39.7701 227.276 39.4531 227.7 39.4531H259.2C259.624 39.4531 259.941 39.7701 259.941 40.1928C259.941 40.6154 259.624 40.9324 259.2 40.9324H227.7C227.329 40.9324 226.959 40.6154 226.959 40.1928Z" fill="#091438"/>
<path d="M227.435 70.0967C228.459 70.0967 229.288 69.2688 229.288 68.2476C229.288 67.2263 228.459 66.3984 227.435 66.3984C226.412 66.3984 225.582 67.2263 225.582 68.2476C225.582 69.2688 226.412 70.0967 227.435 70.0967Z" fill="#0C1740"/>
<path d="M219.918 70.0967C220.941 70.0967 221.771 69.2688 221.771 68.2476C221.771 67.2263 220.941 66.3984 219.918 66.3984C218.894 66.3984 218.065 67.2263 218.065 68.2476C218.065 69.2688 218.894 70.0967 219.918 70.0967Z" fill="#0C1740"/>
<path opacity="0.58" d="M227.435 70.0967C228.459 70.0967 229.288 69.2688 229.288 68.2476C229.288 67.2263 228.459 66.3984 227.435 66.3984C226.412 66.3984 225.582 67.2263 225.582 68.2476C225.582 69.2688 226.412 70.0967 227.435 70.0967Z" stroke="#1AC17D" stroke-width="2" stroke-miterlimit="10"/>
<path opacity="0.58" d="M219.918 70.0967C220.941 70.0967 221.771 69.2688 221.771 68.2476C221.771 67.2263 220.941 66.3984 219.918 66.3984C218.894 66.3984 218.065 67.2263 218.065 68.2476C218.065 69.2688 218.894 70.0967 219.918 70.0967Z" stroke="#F9232E" stroke-width="2" stroke-miterlimit="10"/>
<path d="M232.782 87.8477C232.041 88.4816 231.565 89.4326 231.565 90.4364C231.565 92.3384 233.1 93.8705 235.006 93.8705C236.912 93.8705 238.447 92.3384 238.447 90.4364C238.447 89.3798 237.971 88.4816 237.229 87.8477" stroke="#0C1740" stroke-width="2" stroke-miterlimit="10" stroke-linecap="round" stroke-linejoin="round"/>
<path d="M235.006 86.4736V90.4889" stroke="#0C1740" stroke-width="2" stroke-miterlimit="10" stroke-linecap="round" stroke-linejoin="round"/>
<path d="M261.847 21.6488H208.271C207.847 21.6488 207.529 21.3318 207.529 20.9091V15.89C207.529 15.4674 207.847 15.1504 208.271 15.1504H261.847C262.271 15.1504 262.588 15.4674 262.588 15.89V20.9091C262.588 21.3318 262.271 21.6488 261.847 21.6488Z" fill="#0C1740"/>
<path d="M261.741 24.7663H258.247C258.035 24.7663 257.824 24.555 257.824 24.3437V23.7625C257.824 23.5512 258.035 23.3398 258.247 23.3398H261.741C261.953 23.3398 262.165 23.5512 262.165 23.7625V24.3437C262.165 24.555 261.953 24.7663 261.741 24.7663Z" fill="#0C1740"/>
<path d="M255.441 24.7664C255.018 24.7664 254.7 24.4494 254.7 24.0268C254.7 23.6041 255.018 23.2871 255.441 23.2871C255.865 23.2871 256.182 23.6041 256.182 24.0268C256.182 24.4494 255.865 24.7664 255.441 24.7664Z" fill="#2AD142"/>
<path d="M244.112 87.0026C244.784 87.0026 245.329 86.4584 245.329 85.7874C245.329 85.1164 244.784 84.5723 244.112 84.5723C243.439 84.5723 242.894 85.1164 242.894 85.7874C242.894 86.4584 243.439 87.0026 244.112 87.0026Z" fill="#0C1740"/>
<path d="M244.112 86.6859C244.609 86.6859 245.012 86.2839 245.012 85.7878C245.012 85.2917 244.609 84.8896 244.112 84.8896C243.615 84.8896 243.212 85.2917 243.212 85.7878C243.212 86.2839 243.615 86.6859 244.112 86.6859Z" fill="#1F2F63"/>
<path d="M191.647 168.047H136.588V163.609C136.588 162.077 137.859 160.809 139.394 160.809H188.841C190.377 160.809 191.647 162.077 191.647 163.609V168.047Z" fill="#B7B7B7"/>
<path d="M101.7 168.047H91.1118V163.609C91.1118 162.077 92.3824 160.809 93.9177 160.809H98.8941C100.429 160.809 101.7 162.077 101.7 163.609V168.047Z" fill="#B7B7B7"/>
<path d="M116.524 168.047H105.935V163.609C105.935 162.077 107.206 160.809 108.741 160.809H113.718C115.253 160.809 116.524 162.077 116.524 163.609V168.047Z" fill="#B7B7B7"/>
<path d="M206.418 168.047H195.829V163.609C195.829 162.077 197.1 160.809 198.635 160.809H203.612C205.147 160.809 206.418 162.077 206.418 163.609V168.047Z" fill="#B7B7B7"/>
<path d="M221.718 168.047H211.129V163.609C211.129 162.077 212.4 160.809 213.935 160.809H218.912C220.447 160.809 221.718 162.077 221.718 163.609V168.047Z" fill="#B7B7B7"/>
<path d="M236.488 168.047H225.9V163.609C225.9 162.077 227.171 160.809 228.706 160.809H233.682C235.218 160.809 236.488 162.077 236.488 163.609V168.047Z" fill="#B7B7B7"/>
<path d="M240.088 176.764H87.8824C85.4471 176.764 83.4883 174.81 83.4883 172.379C83.4883 169.949 85.4471 167.994 87.8824 167.994H240.088C242.524 167.994 244.482 169.949 244.482 172.379C244.429 174.81 242.471 176.764 240.088 176.764Z" fill="#D3D3D1"/>
<path d="M191.647 168.047H136.588V163.609C136.588 162.077 137.859 160.809 139.394 160.809H188.841C190.377 160.809 191.647 162.077 191.647 163.609V168.047Z" stroke="#0C1740" stroke-width="6" stroke-miterlimit="10" stroke-linecap="round" stroke-linejoin="round"/>
<path d="M101.7 168.047H91.1118V163.609C91.1118 162.077 92.3824 160.809 93.9177 160.809H98.8941C100.429 160.809 101.7 162.077 101.7 163.609V168.047Z" stroke="#0C1740" stroke-width="6" stroke-miterlimit="10" stroke-linecap="round" stroke-linejoin="round"/>
<path d="M116.524 168.047H105.935V163.609C105.935 162.077 107.206 160.809 108.741 160.809H113.718C115.253 160.809 116.524 162.077 116.524 163.609V168.047Z" stroke="#0C1740" stroke-width="6" stroke-miterlimit="10" stroke-linecap="round" stroke-linejoin="round"/>
<path d="M131.876 168.047H121.288V163.609C121.288 162.077 122.559 160.809 124.094 160.809H129.071C130.606 160.809 131.876 162.077 131.876 163.609V168.047Z" fill="#B7B7B7"/>
<path d="M131.876 168.047H121.288V163.609C121.288 162.077 122.559 160.809 124.094 160.809H129.071C130.606 160.809 131.876 162.077 131.876 163.609V168.047Z" stroke="#0C1740" stroke-width="6" stroke-miterlimit="10" stroke-linecap="round" stroke-linejoin="round"/>
<path d="M206.418 168.047H195.829V163.609C195.829 162.077 197.1 160.809 198.635 160.809H203.612C205.147 160.809 206.418 162.077 206.418 163.609V168.047Z" stroke="#0C1740" stroke-width="6" stroke-miterlimit="10" stroke-linecap="round" stroke-linejoin="round"/>
<path d="M221.718 168.047H211.129V163.609C211.129 162.077 212.4 160.809 213.935 160.809H218.912C220.447 160.809 221.718 162.077 221.718 163.609V168.047Z" stroke="#0C1740" stroke-width="6" stroke-miterlimit="10" stroke-linecap="round" stroke-linejoin="round"/>
<path d="M236.488 168.047H225.9V163.609C225.9 162.077 227.171 160.809 228.706 160.809H233.682C235.218 160.809 236.488 162.077 236.488 163.609V168.047Z" stroke="#0C1740" stroke-width="6" stroke-miterlimit="10" stroke-linecap="round" stroke-linejoin="round"/>
<path d="M240.088 176.764H87.8824C85.4471 176.764 83.4883 174.81 83.4883 172.379C83.4883 169.949 85.4471 167.994 87.8824 167.994H240.088C242.524 167.994 244.482 169.949 244.482 172.379C244.429 174.81 242.471 176.764 240.088 176.764Z" stroke="#0C1740" stroke-width="6" stroke-miterlimit="10" stroke-linecap="round" stroke-linejoin="round"/>
<path d="M251.735 176.764C251.735 170.371 256.924 165.193 263.329 165.193C269.735 165.193 274.924 170.371 274.924 176.764H251.735Z" fill="#D3D3D1"/>
<path d="M251.735 176.764C251.735 170.371 256.924 165.193 263.329 165.193C269.735 165.193 274.924 170.371 274.924 176.764H251.735Z" stroke="#0C1740" stroke-width="6" stroke-miterlimit="10" stroke-linecap="round" stroke-linejoin="round"/>
<path d="M263.382 166.304V169.791" stroke="#0C1740" stroke-width="6" stroke-miterlimit="10" stroke-linecap="round" stroke-linejoin="round"/>
<path opacity="0.72" d="M82.9588 125.887L124.465 44.5254H104.453L62.9471 125.887H82.9588Z" fill="#192859"/>
<path opacity="0.72" d="M107.788 125.887L149.347 44.5254H139.341L97.8353 125.887H107.788Z" fill="#192859"/>
<path d="M211.606 83.8322C210.865 83.4624 210.071 83.6209 209.329 83.7794C209.329 83.0397 209.329 82.2473 209.329 81.5076C210.071 81.3491 210.865 81.1906 211.606 81.5604C211.606 82.3001 211.606 83.0397 211.606 83.8322Z" fill="#67C18B"/>
<path d="M211.606 86.4748C210.865 86.105 210.071 86.2635 209.329 86.422C209.329 85.6823 209.329 84.8898 209.329 84.1502C210.071 83.9917 210.865 83.8332 211.606 84.203C211.606 84.9427 211.606 85.7352 211.606 86.4748Z" fill="#E5E56A"/>
<path d="M208.906 86.5277C208.165 86.6862 207.371 86.8447 206.629 86.4749C206.629 85.7353 206.629 84.9428 206.629 84.2031C207.371 84.573 208.165 84.4144 208.906 84.2559C208.906 84.9956 208.906 85.7881 208.906 86.5277Z" fill="#4988E2"/>
<path d="M208.906 83.8852C208.165 84.0437 207.371 84.2022 206.629 83.8323C206.629 83.0927 206.629 82.3002 206.629 81.5605C207.371 81.9304 208.165 81.7719 208.906 81.6134C208.906 82.353 208.906 83.0927 208.906 83.8852Z" fill="#E87060"/>
<path opacity="0.28" d="M213.194 83.04H219.494" stroke="#0C1740" stroke-width="2" stroke-miterlimit="10" stroke-linecap="round" stroke-linejoin="round"/>
<path opacity="0.28" d="M213.194 84.9424H218.065" stroke="#0C1740" stroke-width="2" stroke-miterlimit="10" stroke-linecap="round" stroke-linejoin="round"/>
</svg>
