<svg width="537" height="436" viewBox="0 0 537 436" fill="none" xmlns="http://www.w3.org/2000/svg">
<path style="mix-blend-mode:overlay" opacity="0.43" d="M452.754 430.09H73.9355L215.531 123.637H311.158L452.754 430.09Z" fill="url(#paint0_linear_69_811)"/>
<path d="M65.6709 344.393L70.4723 321.511L95.7101 315.789" stroke="#283035" stroke-width="8" stroke-linecap="round" stroke-linejoin="round"/>
<path d="M47.8271 432.066H77.9277C78.9717 432.067 79.9801 431.686 80.7636 430.996C81.5477 430.305 82.0528 429.353 82.1846 428.318L90.2247 365.235H35.5325L43.5732 428.318C43.705 429.353 44.2095 430.305 44.993 430.994C45.7759 431.685 46.7837 432.065 47.8271 432.066Z" fill="#EAD57D"/>
<path d="M43.8993 365.237L50.2787 423.497C50.4099 424.695 50.9788 425.804 51.8769 426.608C52.7744 427.413 53.9373 427.858 55.1432 427.858H82.2466L82.1883 428.318C82.0565 429.354 81.5514 430.306 80.7673 430.996C79.9838 431.687 78.9754 432.067 77.9313 432.067H47.8308C46.7868 432.067 45.7783 431.686 44.9948 430.996C44.2114 430.306 43.7062 429.354 43.5744 428.318L35.5325 365.237H43.8993Z" fill="#E5C66E"/>
<path d="M47.8271 432.066H77.9276C78.9717 432.067 79.9801 431.686 80.7636 430.996C81.5477 430.305 82.0528 429.353 82.1846 428.318L90.2247 365.235H35.5325L43.5732 428.318C43.705 429.353 44.2095 430.305 44.993 430.994C45.7759 431.685 46.7837 432.065 47.8271 432.066Z" stroke="#283035" stroke-width="6" stroke-linecap="round" stroke-linejoin="round"/>
<path d="M88.1624 413.906L92.051 383.396H33.7056L37.5941 413.906H88.1624Z" fill="#5CBF84"/>
<path d="M88.1624 413.906L92.051 383.396H33.7056L37.5941 413.906H88.1624Z" fill="#4FB277"/>
<path d="M87.9208 410.381L91.1816 383.396H42.2556L45.2595 408.24C45.3313 408.83 45.6163 409.374 46.0614 409.768C46.5065 410.163 47.0809 410.381 47.6755 410.381H87.9208Z" fill="#5CBF84"/>
<path d="M88.1624 413.906L92.051 383.396H33.7056L37.5941 413.906H88.1624Z" stroke="#283035" stroke-width="6" stroke-linecap="round" stroke-linejoin="round"/>
<path d="M32.0184 365.236H93.7386C97.4629 365.236 100.482 362.217 100.482 358.493C100.482 354.768 97.4629 351.749 93.7386 351.749H32.0184C28.2942 351.749 25.2749 354.768 25.2749 358.493C25.2749 362.217 28.2942 365.236 32.0184 365.236Z" fill="#5CBF84"/>
<path d="M32.0184 365.236H93.7386C97.4629 365.236 100.482 362.217 100.482 358.493C100.482 354.768 97.4629 351.749 93.7386 351.749H32.0184C28.2942 351.749 25.2749 354.768 25.2749 358.493C25.2749 362.217 28.2942 365.236 32.0184 365.236Z" fill="#4FB277"/>
<path d="M38.9924 362.324H95.1939C98.1139 362.324 100.481 359.957 100.481 357.037C100.481 354.117 98.1139 351.749 95.1939 351.749H38.9924C36.0718 351.749 33.7048 354.117 33.7048 357.037C33.7048 359.957 36.0718 362.324 38.9924 362.324Z" fill="#5CBF84"/>
<path d="M32.0184 365.236H93.7386C97.4629 365.236 100.482 362.217 100.482 358.493C100.482 354.768 97.4629 351.749 93.7386 351.749H32.0184C28.2942 351.749 25.2749 354.768 25.2749 358.493C25.2749 362.217 28.2942 365.236 32.0184 365.236Z" stroke="#283035" stroke-width="6" stroke-linecap="round" stroke-linejoin="round"/>
<path d="M38.3562 351.75H87.3999L86.4294 344.393H39.3273L38.3562 351.75Z" fill="#5CBF84"/>
<path d="M39.3273 344.393H53.7167L50.3106 351.75H38.3562L39.3273 344.393Z" fill="#54AF79"/>
<path d="M38.3562 351.75H87.3999L86.4294 344.393H39.3273L38.3562 351.75Z" stroke="#283035" stroke-width="6" stroke-linecap="round" stroke-linejoin="round"/>
<path d="M144.225 267.198H351.299C354.081 267.198 356.749 268.303 358.717 270.27C360.684 272.238 361.79 274.906 361.79 277.689V414.329H133.737V277.688C133.737 274.906 134.842 272.238 136.809 270.271C138.775 268.304 141.443 267.198 144.225 267.198Z" fill="#D2DCE6"/>
<path d="M144.225 267.198H351.299C354.081 267.198 356.749 268.303 358.717 270.27C360.685 272.238 361.79 274.906 361.79 277.689V414.329H133.737V277.688C133.737 274.906 134.842 272.238 136.809 270.271C138.775 268.304 141.443 267.198 144.225 267.198Z" stroke="#283035" stroke-width="6" stroke-linecap="round" stroke-linejoin="round"/>
<path d="M344.625 397.337V284.537H150.902V397.337H344.625Z" fill="#FF5C5C"/>
<path opacity="0.3" d="M263.344 379.341H295.223" stroke="white" stroke-width="6" stroke-linecap="round" stroke-linejoin="round"/>
<g opacity="0.3">
<path opacity="0.3" d="M341.062 344.277C341.676 344.239 342.284 344.408 342.79 344.757C343.296 345.107 343.669 345.617 343.85 346.204V339.182C343.177 338.985 342.479 338.884 341.778 338.88H341.062C339.52 338.88 338.749 339.651 338.749 341.193V342.018C338.749 343.506 339.52 344.277 341.062 344.277Z" fill="white"/>
<path opacity="0.3" d="M343.85 377.939C343.666 378.524 343.291 379.03 342.786 379.376C342.28 379.723 341.674 379.89 341.062 379.852C339.52 379.852 338.749 380.622 338.749 382.164V382.991C338.749 384.532 339.52 385.303 341.062 385.304H341.778C342.479 385.3 343.177 385.199 343.85 385.002V377.939Z" fill="white"/>
</g>
<path d="M344.625 397.337V284.537H150.902V397.337H344.625Z" stroke="#283035" stroke-width="6" stroke-linecap="round" stroke-linejoin="round"/>
<path d="M108.573 414.419H386.957C387.607 414.419 388.23 414.677 388.69 415.137C389.151 415.597 389.409 416.221 389.409 416.871V419.808C389.409 423.06 388.117 426.178 385.818 428.478C383.518 430.777 380.399 432.069 377.148 432.069H118.381C115.13 432.069 112.011 430.777 109.712 428.478C107.412 426.178 106.12 423.06 106.12 419.808V416.871C106.12 416.221 106.378 415.597 106.839 415.137C107.299 414.677 107.922 414.419 108.573 414.419Z" fill="#E5E5E5"/>
<path d="M377.145 426.549H118.379C115.439 426.547 112.597 425.488 110.373 423.565C108.149 421.642 106.691 418.983 106.264 416.074C106.172 416.33 106.123 416.6 106.12 416.871V419.808C106.12 423.06 107.412 426.179 109.712 428.478C112.011 430.777 115.13 432.069 118.381 432.069H377.148C380.399 432.069 383.518 430.777 385.818 428.478C388.117 426.179 389.409 423.06 389.409 419.808V416.871C389.406 416.6 389.357 416.33 389.265 416.074C388.838 418.984 387.379 421.644 385.154 423.567C382.929 425.49 380.086 426.549 377.145 426.549Z" fill="#CFD1D0"/>
<path d="M108.573 414.419H386.957C387.607 414.419 388.231 414.677 388.69 415.137C389.151 415.597 389.409 416.221 389.409 416.871V419.808C389.409 423.06 388.117 426.178 385.818 428.478C383.518 430.777 380.399 432.069 377.148 432.069H118.381C115.13 432.069 112.011 430.777 109.712 428.478C107.412 426.178 106.12 423.06 106.12 419.808V416.871C106.12 416.221 106.378 415.597 106.839 415.137C107.299 414.677 107.922 414.419 108.573 414.419Z" stroke="#283035" stroke-width="6" stroke-linecap="round" stroke-linejoin="round"/>
<path d="M222.016 414.329H273.511C273.511 415.63 272.995 416.877 272.075 417.797C271.155 418.717 269.908 419.234 268.607 419.234H226.92C225.619 419.234 224.372 418.717 223.452 417.797C222.532 416.877 222.016 415.63 222.016 414.329Z" fill="#686B6D"/>
<path d="M222.016 414.329H273.511C273.511 415.63 272.995 416.877 272.075 417.797C271.155 418.717 269.908 419.234 268.607 419.234H226.92C225.619 419.234 224.372 418.717 223.452 417.797C222.532 416.877 222.016 415.63 222.016 414.329Z" stroke="#283035" stroke-width="4" stroke-linecap="round" stroke-linejoin="round"/>
<path d="M247.281 280.541C249.99 280.541 252.185 278.345 252.185 275.637C252.185 272.929 249.99 270.733 247.281 270.733C244.572 270.733 242.377 272.929 242.377 275.637C242.377 278.345 244.572 280.541 247.281 280.541Z" fill="#686B6D"/>
<path d="M247.281 280.541C249.99 280.541 252.185 278.345 252.185 275.637C252.185 272.929 249.99 270.733 247.281 270.733C244.572 270.733 242.377 272.929 242.377 275.637C242.377 278.345 244.572 280.541 247.281 280.541Z" stroke="#283035" stroke-width="4" stroke-linecap="round" stroke-linejoin="round"/>
<path d="M395.84 432.127C395.868 427.432 397.752 422.938 401.083 419.628C404.412 416.318 408.917 414.459 413.612 414.459C418.307 414.459 422.812 416.318 426.142 419.628C429.472 422.938 431.357 427.432 431.384 432.127H395.84Z" fill="#E5E5E5"/>
<path d="M413.613 426.514C416.154 426.538 418.671 426.018 420.995 424.988C423.319 423.959 425.395 422.444 427.085 420.545C425.418 418.604 423.351 417.046 421.026 415.977C418.7 414.909 416.171 414.356 413.612 414.356C411.053 414.356 408.524 414.909 406.199 415.977C403.874 417.046 401.807 418.604 400.14 420.545C401.829 422.444 403.906 423.959 406.23 424.988C408.554 426.018 411.071 426.538 413.613 426.514Z" fill="#CFD1D0"/>
<path d="M395.84 432.127C395.868 427.432 397.752 422.938 401.083 419.628C404.412 416.318 408.917 414.459 413.612 414.459C418.307 414.459 422.812 416.318 426.142 419.628C429.472 422.938 431.357 427.432 431.384 432.127H395.84Z" stroke="#283035" stroke-width="6" stroke-linecap="round" stroke-linejoin="round"/>
<g style="mix-blend-mode:multiply" opacity="0.14">
<path d="M276.827 306.389H183.653C180.942 306.389 178.744 308.587 178.744 311.298V383.627C178.744 386.339 180.942 388.537 183.653 388.537H276.827C279.538 388.537 281.736 386.339 281.736 383.627V311.298C281.736 308.587 279.538 306.389 276.827 306.389Z" fill="black"/>
</g>
<path d="M272.025 302.097H178.852C176.14 302.097 173.942 304.296 173.942 307.007V379.336C173.942 382.048 176.14 384.245 178.852 384.245H272.025C274.736 384.245 276.934 382.048 276.934 379.336V307.007C276.934 304.296 274.736 302.097 272.025 302.097Z" fill="#353F49"/>
<path d="M272.025 302.097H178.852C176.14 302.097 173.942 304.296 173.942 307.007V379.336C173.942 382.048 176.14 384.245 178.852 384.245H272.025C274.736 384.245 276.934 382.048 276.934 379.336V307.007C276.934 304.296 274.736 302.097 272.025 302.097Z" stroke="#283035" stroke-width="4" stroke-linecap="round" stroke-linejoin="round"/>
<path d="M178.851 302.097H272.025C273.327 302.097 274.576 302.615 275.496 303.536C276.417 304.456 276.934 305.704 276.934 307.007V314.358H173.942V307.007C173.942 305.705 174.459 304.456 175.38 303.536C176.301 302.615 177.549 302.098 178.851 302.097Z" fill="#EAEEEF"/>
<path d="M178.851 302.097H272.025C273.327 302.097 274.576 302.615 275.496 303.536C276.417 304.456 276.934 305.704 276.934 307.007V314.358H173.942V307.007C173.942 305.705 174.459 304.456 175.38 303.536C176.301 302.615 177.549 302.098 178.851 302.097Z" stroke="#283035" stroke-width="4" stroke-linecap="round" stroke-linejoin="round"/>
<path opacity="0.35" d="M182.729 310.144C183.787 310.144 184.645 309.286 184.645 308.228C184.645 307.17 183.787 306.312 182.729 306.312C181.671 306.312 180.813 307.17 180.813 308.228C180.813 309.286 181.671 310.144 182.729 310.144Z" fill="#283035"/>
<path opacity="0.35" d="M188.757 310.144C189.815 310.144 190.673 309.286 190.673 308.228C190.673 307.17 189.815 306.312 188.757 306.312C187.699 306.312 186.841 307.17 186.841 308.228C186.841 309.286 187.699 310.144 188.757 310.144Z" fill="#283035"/>
<path opacity="0.35" d="M194.479 310.144C195.537 310.144 196.395 309.286 196.395 308.228C196.395 307.17 195.537 306.312 194.479 306.312C193.421 306.312 192.563 307.17 192.563 308.228C192.563 309.286 193.421 310.144 194.479 310.144Z" fill="#283035"/>
<path d="M178.744 318.65H185.488" stroke="#46BB86" stroke-width="3" stroke-miterlimit="10"/>
<path d="M187.94 318.65H206.331" stroke="#46BB86" stroke-width="3" stroke-miterlimit="10"/>
<path d="M178.744 323.554H206.331" stroke="#389ABE" stroke-width="3" stroke-miterlimit="10"/>
<path d="M184.262 328.458H197.749" stroke="#E5C689" stroke-width="3" stroke-miterlimit="10"/>
<path d="M200.201 328.458H214.914" stroke="#F2F3F4" stroke-width="3" stroke-miterlimit="10"/>
<path d="M191.618 333.363H219.818" stroke="#F2F3F4" stroke-width="3" stroke-miterlimit="10"/>
<path d="M191.618 338.267H212.462" stroke="#FFA49F" stroke-width="3" stroke-miterlimit="10"/>
<path d="M184.262 343.171H214.914" stroke="#F2F3F4" stroke-width="3" stroke-miterlimit="10"/>
<path d="M178.744 347.463H195.296" stroke="#389ABE" stroke-width="3" stroke-miterlimit="10"/>
<g opacity="0.3">
<path opacity="0.3" d="M321.361 371.213C321.361 368.79 320.424 367.083 318.552 366.037C317.23 365.321 316.679 364.77 316.679 363.504V361.358C316.679 359.871 317.34 359.541 318.497 358.77C320.424 357.944 321.361 356.182 321.361 353.539V348.857C321.361 345.113 322.737 342.359 324.72 341.203C326.202 340.145 327.965 339.551 329.786 339.496H330.502C332.043 339.496 332.814 340.267 332.815 341.809V342.631C332.815 344.118 332.044 344.889 330.502 344.889C328.356 344.889 327.308 346.431 327.308 349.57V355.352C327.362 356.756 327.012 358.146 326.3 359.356C325.587 360.567 324.542 361.547 323.288 362.181L322.792 362.346V362.456C323.357 362.623 323.882 362.904 324.334 363.282C325.711 364.108 327.308 366.036 327.308 369.394V375.838C327.308 378.921 328.354 380.464 330.502 380.464C332.043 380.464 332.814 381.234 332.815 382.776V383.602C332.815 385.144 332.044 385.915 330.502 385.915H329.786C327.965 385.86 326.202 385.266 324.72 384.208C322.737 383.052 321.361 380.243 321.361 376.554V371.213Z" fill="white"/>
</g>
<path d="M45.0486 400.738L46.2747 399.545C50.9271 403.316 56.7345 405.374 62.7239 405.374C68.7128 405.374 74.5201 403.316 79.1732 399.545L80.7058 401.043" stroke="#283035" stroke-width="3" stroke-linecap="round" stroke-linejoin="round"/>
<path d="M58.9657 394.556C58.9657 393.86 58.6892 393.193 58.1969 392.7C57.7047 392.208 57.0371 391.932 56.3412 391.932C55.6454 391.932 54.9778 392.208 54.4856 392.7C53.9933 393.193 53.7168 393.86 53.7168 394.556V396.96" stroke="#283035" stroke-width="3" stroke-linecap="round" stroke-linejoin="round"/>
<path d="M66.7903 394.556C66.7903 393.86 67.0668 393.193 67.559 392.7C68.0507 392.208 68.7183 391.932 69.4147 391.932C70.1105 391.932 70.7781 392.208 71.2704 392.7C71.7627 393.193 72.0392 393.86 72.0392 394.556V396.96" stroke="#283035" stroke-width="3" stroke-linecap="round" stroke-linejoin="round"/>
<path d="M510.684 425.405L504.612 426.249L508.493 431.899L510.684 425.405Z" fill="#E5E5E5"/>
<path d="M510.684 425.405L504.612 426.249L508.493 431.899L510.684 425.405Z" stroke="#283035" stroke-width="4" stroke-linecap="round" stroke-linejoin="round"/>
<path d="M493.625 352.431H445.93C442.849 352.431 440.352 354.929 440.352 358.01V426.549C440.352 429.63 442.849 432.127 445.93 432.127H493.625C496.706 432.127 499.204 429.63 499.204 426.549V358.01C499.204 354.929 496.706 352.431 493.625 352.431Z" fill="#E5E5E5"/>
<path d="M493.625 352.431H492.919C493.02 352.853 493.072 353.285 493.074 353.719V422.257C493.074 423.737 492.486 425.156 491.44 426.202C490.393 427.248 488.974 427.836 487.495 427.836H440.51C440.8 429.057 441.493 430.145 442.477 430.923C443.461 431.702 444.679 432.126 445.934 432.127H493.629C495.108 432.127 496.528 431.539 497.574 430.493C498.62 429.447 499.208 428.028 499.208 426.549V358.01C499.208 357.277 499.063 356.551 498.783 355.874C498.502 355.198 498.091 354.582 497.573 354.064C497.054 353.546 496.439 353.135 495.761 352.855C495.084 352.575 494.359 352.431 493.625 352.431Z" fill="#CFD1D0"/>
<path d="M493.625 352.431H445.93C442.849 352.431 440.352 354.929 440.352 358.01V426.549C440.352 429.63 442.849 432.127 445.93 432.127H493.625C496.706 432.127 499.204 429.63 499.204 426.549V358.01C499.204 354.929 496.706 352.431 493.625 352.431Z" stroke="#283035" stroke-width="6" stroke-linecap="round" stroke-linejoin="round"/>
<path d="M479.587 347.807H474.682V345.967C474.682 344.667 474.165 343.419 473.246 342.499C472.326 341.58 471.079 341.063 469.778 341.063C468.477 341.063 467.23 341.58 466.31 342.499C465.39 343.419 464.873 344.667 464.873 345.967V347.807H459.969C458.668 347.807 457.421 348.323 456.501 349.243C455.581 350.163 455.065 351.41 455.065 352.711C455.065 354.012 455.581 355.259 456.501 356.179C457.421 357.099 458.668 357.615 459.969 357.615H479.587C480.887 357.615 482.135 357.099 483.055 356.179C483.974 355.259 484.491 354.012 484.491 352.711C484.491 351.41 483.974 350.163 483.055 349.243C482.135 348.323 480.887 347.807 479.587 347.807Z" fill="#F7B66F"/>
<path d="M481.865 348.371C482.065 349.097 482.093 349.86 481.948 350.6C481.804 351.339 481.49 352.035 481.032 352.633C480.574 353.231 479.984 353.716 479.308 354.048C478.632 354.381 477.888 354.553 477.134 354.55H457.517C456.723 354.55 455.941 354.357 455.238 353.987C455.519 355.027 456.134 355.947 456.989 356.603C457.844 357.258 458.892 357.614 459.969 357.615H479.587C480.683 357.614 481.746 357.246 482.608 356.57C483.471 355.894 484.081 354.949 484.344 353.884C484.606 352.821 484.504 351.699 484.056 350.7C483.606 349.701 482.835 348.881 481.865 348.371Z" fill="#EDA762"/>
<path d="M472.23 342.902V344.741H474.522C474.351 344.079 474.043 343.46 473.619 342.923C473.194 342.387 472.662 341.945 472.057 341.627C472.171 342.043 472.229 342.471 472.23 342.902Z" fill="#EDA762"/>
<path d="M479.587 347.807H474.682V345.967C474.682 344.667 474.165 343.419 473.246 342.499C472.326 341.58 471.079 341.063 469.778 341.063C468.477 341.063 467.23 341.58 466.31 342.499C465.39 343.419 464.873 344.667 464.873 345.967V347.807H459.969C458.668 347.807 457.421 348.323 456.501 349.243C455.581 350.163 455.065 351.41 455.065 352.711C455.065 354.012 455.581 355.259 456.501 356.179C457.421 357.099 458.668 357.615 459.969 357.615H479.587C480.887 357.615 482.135 357.099 483.055 356.179C483.974 355.259 484.491 354.012 484.491 352.711C484.491 351.41 483.974 350.163 483.055 349.243C482.135 348.323 480.887 347.807 479.587 347.807Z" stroke="#283035" stroke-width="6" stroke-linecap="round" stroke-linejoin="round"/>
<path d="M469.778 375.394C472.599 375.394 474.886 373.106 474.886 370.285C474.886 367.464 472.599 365.177 469.778 365.177C466.956 365.177 464.669 367.464 464.669 370.285C464.669 373.106 466.956 375.394 469.778 375.394Z" fill="#8EAFBF"/>
<path d="M469.778 375.394C472.599 375.394 474.886 373.106 474.886 370.285C474.886 367.464 472.599 365.177 469.778 365.177C466.956 365.177 464.669 367.464 464.669 370.285C464.669 373.106 466.956 375.394 469.778 375.394Z" stroke="#283035" stroke-width="6" stroke-linecap="round" stroke-linejoin="round"/>
<path d="M450.297 386.02H462.558" stroke="#283035" stroke-width="6" stroke-linecap="round" stroke-linejoin="round"/>
<path d="M450.297 402.674H462.558" stroke="#283035" stroke-width="6" stroke-linecap="round" stroke-linejoin="round"/>
<path d="M450.297 419.329H462.558" stroke="#283035" stroke-width="6" stroke-linecap="round" stroke-linejoin="round"/>
<path d="M470.659 385.364L473.855 389.616L483.421 382.425" stroke="#8BAFC1" stroke-width="4" stroke-linecap="round" stroke-linejoin="round"/>
<path d="M470.659 402.018L473.855 406.27L483.421 399.079" stroke="#8BAFC1" stroke-width="4" stroke-linecap="round" stroke-linejoin="round"/>
<path d="M505.276 386.545L499.203 387.39L504.611 426.25L510.683 425.405L505.276 386.545Z" fill="#3BBC88"/>
<path d="M505.276 386.545L499.203 387.39L504.611 426.25L510.683 425.405L505.276 386.545Z" stroke="#283035" stroke-width="4" stroke-linecap="round" stroke-linejoin="round"/>
<path d="M503.033 380.372L499.391 380.88L500.237 386.949L503.879 386.441L503.033 380.372Z" fill="#E5E5E5"/>
<path d="M503.033 380.372L499.391 380.88L500.237 386.949L503.879 386.441L503.033 380.372Z" stroke="#283035" stroke-width="4" stroke-linecap="round" stroke-linejoin="round"/>
<path d="M510.765 401.879C510.079 400.748 509.592 399.507 509.327 398.211C508.649 394.88 510.322 392.976 509.417 391.08C509.057 390.324 508.882 389.292 506.174 388.901" stroke="#283035" stroke-width="4" stroke-linecap="round" stroke-linejoin="round"/>
<path d="M518.214 432.127H534" stroke="#283035" stroke-width="6" stroke-linecap="round" stroke-linejoin="round"/>
<path d="M97.4092 432.127H511.317" stroke="#283035" stroke-width="6" stroke-linecap="round" stroke-linejoin="round"/>
<path d="M24.0991 432.127H90.2259" stroke="#283035" stroke-width="6" stroke-linecap="round" stroke-linejoin="round"/>
<path d="M3 432.127H17.2024" stroke="#283035" stroke-width="6" stroke-linecap="round" stroke-linejoin="round"/>
<path d="M263.344 139.518C271.47 139.518 278.058 132.931 278.058 124.805C278.058 116.679 271.47 110.092 263.344 110.092C255.219 110.092 248.631 116.679 248.631 124.805C248.631 132.931 255.219 139.518 263.344 139.518Z" fill="white"/>
<path d="M221.108 128.127C220.36 128.124 219.621 127.963 218.939 127.654C218.258 127.344 217.65 126.894 217.155 126.333C216.661 125.771 216.29 125.111 216.07 124.396C215.849 123.681 215.782 122.927 215.874 122.185C218.734 97.9034 238.896 79.0829 263.345 79.0829C287.793 79.0829 307.955 97.9034 310.815 122.185C310.907 122.928 310.84 123.681 310.619 124.397C310.398 125.112 310.028 125.772 309.533 126.333C309.039 126.895 308.43 127.345 307.749 127.655C307.067 127.963 306.328 128.124 305.579 128.127H221.108Z" fill="#F7B66F"/>
<path d="M270.701 79.6616C270.543 79.6365 270.383 79.6187 270.224 79.5954C269.667 79.5133 269.107 79.4391 268.543 79.3766C268.287 79.3477 268.03 79.3244 267.773 79.2999C267.305 79.2558 266.838 79.2159 266.369 79.189C266.097 79.173 265.827 79.1528 265.554 79.1399C264.821 79.1056 264.083 79.0829 263.347 79.0829C262.611 79.0829 261.876 79.105 261.147 79.1399C260.811 79.1559 260.477 79.1822 260.142 79.2049C259.78 79.23 259.419 79.2558 259.059 79.2895C258.617 79.3293 258.178 79.3772 257.741 79.4299C257.527 79.4556 257.312 79.4844 257.101 79.5133C235.016 82.47 217.665 100.869 215.713 123.805C215.664 124.353 215.73 124.906 215.906 125.427C216.082 125.948 216.366 126.428 216.737 126.834C217.108 127.24 217.559 127.565 218.063 127.788C218.566 128.01 219.11 128.125 219.661 128.127H307.031C307.576 128.128 308.117 128.017 308.617 127.799C309.118 127.582 309.568 127.263 309.939 126.864C310.311 126.463 310.595 125.991 310.775 125.476C310.955 124.961 311.026 124.414 310.984 123.87C309.091 101.287 292.276 83.0787 270.701 79.6616ZM232.094 114.596C234.179 107.018 238.071 100.059 243.435 94.3146C248.799 88.5704 255.476 84.2129 262.893 81.6142C270.317 84.2073 277.001 88.563 282.372 94.3079C287.742 100.053 291.638 107.014 293.726 114.596C293.991 115.576 294.026 116.604 293.829 117.599C293.631 118.595 293.207 119.532 292.589 120.337C291.971 121.142 291.175 121.794 290.264 122.241C289.352 122.688 288.351 122.919 287.335 122.916H238.485C237.47 122.919 236.467 122.688 235.556 122.241C234.645 121.794 233.849 121.143 233.231 120.338C232.612 119.532 232.188 118.596 231.99 117.6C231.794 116.604 231.828 115.576 232.094 114.596Z" fill="#EFAA65"/>
<path d="M221.149 128.127C220.396 128.125 219.651 127.962 218.964 127.651C218.278 127.34 217.665 126.887 217.168 126.321C216.669 125.756 216.296 125.091 216.074 124.371C215.851 123.651 215.785 122.892 215.877 122.144C218.757 97.8795 238.91 79.0829 263.345 79.0829C287.779 79.0829 307.933 97.8795 310.81 122.144C310.903 122.892 310.835 123.651 310.613 124.371C310.391 125.091 310.018 125.756 309.52 126.322C309.021 126.887 308.409 127.341 307.722 127.651C307.036 127.963 306.292 128.125 305.537 128.127H221.149Z" stroke="#283035" stroke-width="6" stroke-linecap="round" stroke-linejoin="round"/>
<path d="M263.344 0V79.0829" stroke="#283035" stroke-width="6" stroke-linejoin="round"/>
<defs>
<linearGradient id="paint0_linear_69_811" x1="263.345" y1="119.375" x2="263.345" y2="440.906" gradientUnits="userSpaceOnUse">
<stop stop-color="white"/>
<stop offset="0.093" stop-color="white" stop-opacity="0.864"/>
<stop offset="0.284" stop-color="white" stop-opacity="0.605"/>
<stop offset="0.466" stop-color="white" stop-opacity="0.389"/>
<stop offset="0.633" stop-color="white" stop-opacity="0.221"/>
<stop offset="0.784" stop-color="white" stop-opacity="0.1"/>
<stop offset="0.911" stop-color="white" stop-opacity="0.026"/>
<stop offset="1" stop-color="white" stop-opacity="0"/>
</linearGradient>
</defs>
</svg>
