<svg width="50" height="50" viewBox="0 0 50 50" fill="none" xmlns="http://www.w3.org/2000/svg">
<path d="M49.0578 22.7735L27.2327 0.942723C26.6285 0.339079 25.8094 0 24.9553 0C24.1012 0 23.2821 0.339079 22.6779 0.942723L18.1399 5.4774L23.89 11.2275C26.9101 10.2074 29.7696 13.0992 28.7327 16.1026L34.2752 21.6451C38.0956 20.3281 41.1035 25.105 38.234 27.9722C35.2775 30.9287 30.3979 27.6519 31.9839 23.8047L26.8108 18.6383V32.2379C29.6345 33.6375 29.2952 36.9087 27.8242 38.3764C27.1055 39.0947 26.131 39.4982 25.1149 39.4982C24.0988 39.4982 23.1243 39.0947 22.4056 38.3764C20.4446 36.4121 21.1701 33.1408 23.6612 32.1263V18.3984C21.3397 17.4486 20.9156 14.9675 21.5808 13.376L15.9122 7.70065L0.943185 22.6719C0.339267 23.2759 0 24.0951 0 24.9493C0 25.8034 0.339267 26.6226 0.943185 27.2267L22.775 49.0574C23.379 49.6609 24.198 50 25.0519 50C25.9057 50 26.7247 49.6609 27.3287 49.0574L49.0578 27.3282C49.6618 26.7242 50.001 25.905 50.001 25.0508C50.001 24.1967 49.6618 23.3775 49.0578 22.7735Z" fill="black"/>
</svg>
