<svg width="52" height="50" viewBox="0 0 52 50" fill="none" xmlns="http://www.w3.org/2000/svg">
<path d="M17.1534 40.2599C17.1534 40.4667 16.9156 40.6321 16.6158 40.6321C16.2746 40.6631 16.0368 40.4977 16.0368 40.2599C16.0368 40.0531 16.2746 39.8877 16.5744 39.8877C16.8846 39.8567 17.1534 40.0221 17.1534 40.2599ZM13.938 39.7947C13.8656 40.0015 14.0724 40.2392 14.3825 40.3013C14.6514 40.4047 14.9615 40.3013 15.0236 40.0945C15.0856 39.8877 14.8891 39.6499 14.579 39.5569C14.3102 39.4845 14.0103 39.5879 13.938 39.7947ZM18.5078 39.6189C18.208 39.6913 18.0012 39.8877 18.0322 40.1255C18.0632 40.3323 18.332 40.4667 18.6422 40.3943C18.942 40.322 19.1488 40.1255 19.1178 39.9187C19.0868 39.7223 18.8076 39.5879 18.5078 39.6189ZM25.3108 0C10.9707 0 0.0010376 10.8869 0.0010376 25.2271C0.0010376 36.693 7.21763 46.5047 17.5256 49.9579C18.849 50.1957 19.3142 49.3789 19.3142 48.7069C19.3142 48.0658 19.2832 44.5299 19.2832 42.3587C19.2832 42.3587 12.0459 43.9096 10.5261 39.2777C10.5261 39.2777 9.34746 36.2691 7.65187 35.4937C7.65187 35.4937 5.28425 33.8704 7.81729 33.9015C7.81729 33.9015 10.3917 34.1082 11.8081 36.5689C14.0724 40.5598 17.8668 39.4121 19.3452 38.7298C19.583 37.0755 20.2551 35.9279 20.9995 35.2455C15.22 34.6045 9.38882 33.7671 9.38882 23.821C9.38882 20.9778 10.1746 19.551 11.8288 17.7313C11.56 17.0593 10.6812 14.2884 12.0976 10.7112C14.2585 10.0391 19.2315 13.5027 19.2315 13.5027C21.2993 12.9237 23.5222 12.6239 25.7244 12.6239C27.9266 12.6239 30.1495 12.9237 32.2173 13.5027C32.2173 13.5027 37.1903 10.0288 39.3511 10.7112C40.7676 14.2988 39.8888 17.0593 39.62 17.7313C41.2742 19.5613 42.2874 20.9881 42.2874 23.821C42.2874 33.7981 36.1978 34.5942 30.4183 35.2455C31.3695 36.0623 32.1759 37.6132 32.1759 40.0428C32.1759 43.527 32.1449 47.8384 32.1449 48.6862C32.1449 49.3582 32.6205 50.175 33.9335 49.9372C44.2725 46.5047 51.2823 36.693 51.2823 25.2271C51.2823 10.8869 39.651 0 25.3108 0ZM10.0505 35.6591C9.9161 35.7625 9.94712 36.0003 10.1229 36.1967C10.2883 36.3621 10.5261 36.4345 10.6605 36.3001C10.7949 36.1967 10.7639 35.9589 10.5881 35.7625C10.4227 35.5971 10.1849 35.5247 10.0505 35.6591ZM8.9339 34.8216C8.86153 34.956 8.96492 35.1215 9.1717 35.2249C9.33712 35.3282 9.5439 35.2972 9.61627 35.1525C9.68865 35.0181 9.58526 34.8527 9.37848 34.7493C9.1717 34.6872 9.00628 34.7182 8.9339 34.8216ZM12.2837 38.5023C12.1183 38.6367 12.1803 38.9469 12.4181 39.1433C12.6559 39.3811 12.9558 39.4121 13.0902 39.2467C13.2246 39.1123 13.1625 38.8021 12.9558 38.6057C12.7283 38.3679 12.4181 38.3369 12.2837 38.5023ZM11.1051 36.9825C10.9397 37.0859 10.9397 37.3547 11.1051 37.5925C11.2705 37.8303 11.5497 37.9337 11.6841 37.8303C11.8495 37.6959 11.8495 37.4271 11.6841 37.1893C11.5393 36.9515 11.2705 36.8481 11.1051 36.9825Z" fill="black"/>
</svg>
