<svg width="25" height="25" viewBox="0 0 25 25" fill="none" xmlns="http://www.w3.org/2000/svg">
<path d="M12.5 0C5.59693 0 0 5.59894 0 12.5C0 19.4051 5.59693 25 12.5 25C19.4031 25 25 19.4051 25 12.5C25 5.59894 19.4031 0 12.5 0ZM12.5 5.54435C13.6692 5.54435 14.6169 6.49214 14.6169 7.66129C14.6169 8.83044 13.6692 9.77823 12.5 9.77823C11.3308 9.77823 10.3831 8.83044 10.3831 7.66129C10.3831 6.49214 11.3308 5.54435 12.5 5.54435ZM15.3226 18.3468C15.3226 18.6808 15.0518 18.9516 14.7177 18.9516H10.2823C9.94824 18.9516 9.67742 18.6808 9.67742 18.3468V17.1371C9.67742 16.8031 9.94824 16.5323 10.2823 16.5323H10.8871V13.3065H10.2823C9.94824 13.3065 9.67742 13.0356 9.67742 12.7016V11.4919C9.67742 11.1579 9.94824 10.8871 10.2823 10.8871H13.5081C13.8421 10.8871 14.1129 11.1579 14.1129 11.4919V16.5323H14.7177C15.0518 16.5323 15.3226 16.8031 15.3226 17.1371V18.3468Z" fill="black"/>
</svg>
