<svg width="51" height="50" viewBox="0 0 51 50" fill="none" xmlns="http://www.w3.org/2000/svg">
<path d="M0.714264 0V50H50.7143V0H0.714264ZM27.9241 38.9955C27.9241 43.8616 25.0669 46.0826 20.904 46.0826C17.1428 46.0826 14.9665 44.1406 13.8504 41.7857L17.6785 39.4754C18.4152 40.7812 19.0848 41.8862 20.7031 41.8862C22.2433 41.8862 23.2254 41.2835 23.2254 38.9286V22.9576H27.9241V38.9955ZM39.0402 46.0826C34.6763 46.0826 31.8527 44.0067 30.4799 41.2835L34.308 39.0737C35.3125 40.7143 36.6294 41.9308 38.9397 41.9308C40.8817 41.9308 42.1317 40.9598 42.1317 39.6094C42.1317 38.0022 40.8594 37.433 38.7053 36.4844L37.5335 35.9821C34.1406 34.5424 31.8973 32.7232 31.8973 28.8951C31.8973 25.3683 34.587 22.6897 38.7723 22.6897C41.7634 22.6897 43.9062 23.7277 45.4464 26.4509L41.7857 28.7946C40.9821 27.3549 40.1116 26.7857 38.7611 26.7857C37.3884 26.7857 36.5178 27.6562 36.5178 28.7946C36.5178 30.2009 37.3884 30.7701 39.4085 31.6518L40.5803 32.154C44.5759 33.8616 46.8192 35.6138 46.8192 39.5424C46.8192 43.7612 43.4933 46.0826 39.0402 46.0826Z" fill="black"/>
</svg>
