<svg width="21" height="21" viewBox="0 0 21 21" fill="none" xmlns="http://www.w3.org/2000/svg">
<path d="M19.5 0H1.49531C0.670312 0 0 0.679688 0 1.51406V19.4859C0 20.3203 0.670312 21 1.49531 21H19.5C20.325 21 21 20.3203 21 19.4859V1.51406C21 0.679688 20.325 0 19.5 0ZM6.34687 18H3.23438V7.97812H6.35156V18H6.34687ZM4.79062 6.60938C3.79219 6.60938 2.98594 5.79844 2.98594 4.80469C2.98594 3.81094 3.79219 3 4.79062 3C5.78437 3 6.59531 3.81094 6.59531 4.80469C6.59531 5.80312 5.78906 6.60938 4.79062 6.60938ZM18.0141 18H14.9016V13.125C14.9016 11.9625 14.8781 10.4672 13.2844 10.4672C11.6625 10.4672 11.4141 11.7328 11.4141 13.0406V18H8.30156V7.97812H11.2875V9.34687H11.3297C11.7469 8.55937 12.7641 7.72969 14.2781 7.72969C17.4281 7.72969 18.0141 9.80625 18.0141 12.5062V18Z" fill="white"/>
</svg>
