<svg width="42" height="30" viewBox="0 0 42 30" fill="none" xmlns="http://www.w3.org/2000/svg">
<path d="M41.1224 4.69398C40.6393 2.84633 39.2161 1.39117 37.4091 0.897344C34.1338 0 21 0 21 0C21 0 7.8663 0 4.59087 0.897344C2.78386 1.39125 1.36067 2.84633 0.877631 4.69398C0 8.04297 0 15.0303 0 15.0303C0 15.0303 0 22.0177 0.877631 25.3666C1.36067 27.2143 2.78386 28.6088 4.59087 29.1027C7.8663 30 21 30 21 30C21 30 34.1337 30 37.4091 29.1027C39.2161 28.6088 40.6393 27.2143 41.1224 25.3666C42 22.0177 42 15.0303 42 15.0303C42 15.0303 42 8.04297 41.1224 4.69398ZM16.7045 21.3743V8.68633L27.6817 15.0305L16.7045 21.3743Z" fill="white"/>
</svg>
