<svg width="91" height="25" viewBox="0 0 91 25" fill="none" xmlns="http://www.w3.org/2000/svg">
<path d="M0.325195 13.3066C0.325195 13.0723 0.717773 12.5713 1.50293 11.8037C2.29395 11.0303 3.08203 10.3154 3.86719 9.65918L5.05371 8.6748C5.11816 8.62793 5.17969 8.60449 5.23828 8.60449C5.36719 8.60449 5.5752 8.78027 5.8623 9.13184C6.15527 9.4834 6.30176 9.75879 6.30176 9.95801C6.30176 10.0518 6.26367 10.1367 6.1875 10.2129L2.68945 13.3066L6.27539 16.4004C6.35156 16.4766 6.38965 16.5615 6.38965 16.6553C6.38965 16.8545 6.23145 17.1299 5.91504 17.4814C5.60449 17.833 5.37891 18.0088 5.23828 18.0088C5.17969 18.0088 5.11816 17.9854 5.05371 17.9385C4.98926 17.8857 4.89844 17.8125 4.78125 17.7188C4.66992 17.625 4.4502 17.4404 4.12207 17.165C3.79395 16.8838 3.48047 16.6143 3.18164 16.3564C2.88867 16.0986 2.55762 15.8027 2.18848 15.4688C1.8252 15.1289 1.51172 14.8271 1.24805 14.5635C0.990234 14.2939 0.770508 14.0449 0.588867 13.8164C0.413086 13.582 0.325195 13.4121 0.325195 13.3066ZM19.3975 13.8516L19.4062 17.5342C19.1953 17.7451 18.958 17.8506 18.6943 17.8506C18.6299 17.8506 18.5625 17.8447 18.4922 17.833C18.4277 17.8154 18.3574 17.792 18.2812 17.7627C18.2051 17.7275 18.1436 17.7012 18.0967 17.6836C18.0498 17.6602 17.9795 17.625 17.8857 17.5781C17.7979 17.5254 17.7422 17.4932 17.7188 17.4814C17.1914 17.6982 16.5762 17.877 15.873 18.0176C15.1758 18.1641 14.5195 18.2373 13.9043 18.2373C13.0254 18.2373 12.2168 18.1113 11.4785 17.8594C10.7402 17.6074 10.1133 17.2676 9.59766 16.8398C9.08203 16.4121 8.64258 15.9141 8.2793 15.3457C7.92188 14.7715 7.6582 14.165 7.48828 13.5264C7.31836 12.8877 7.2334 12.2285 7.2334 11.5488C7.2334 10.6289 7.38281 9.75293 7.68164 8.9209C7.98047 8.08887 8.39355 7.3623 8.9209 6.74121C9.44824 6.12012 10.1016 5.62793 10.8809 5.26465C11.6602 4.89551 12.501 4.71094 13.4033 4.71094C14.1182 4.71094 14.8477 4.83984 15.5918 5.09766C16.3418 5.34961 16.9336 5.72461 17.3672 6.22266C17.3672 5.34375 17.4814 4.9043 17.71 4.9043H18.6943C18.9756 4.9043 19.1162 5.20898 19.1162 5.81836V7.98926C19.1162 8.32324 19.0986 8.56934 19.0635 8.72754C19.0342 8.87988 18.9932 8.97656 18.9404 9.01758C18.8936 9.05273 18.8115 9.07617 18.6943 9.08789H17.9648C17.918 9.08789 17.833 9.02051 17.71 8.88574C17.5928 8.75098 17.4551 8.58398 17.2969 8.38477C17.1387 8.17969 16.9307 7.95996 16.6729 7.72559C16.4209 7.48535 16.1514 7.26563 15.8643 7.06641C15.5771 6.86133 15.2285 6.69141 14.8184 6.55664C14.4141 6.42188 13.9922 6.35449 13.5527 6.35449C13.0078 6.35449 12.5039 6.4541 12.041 6.65332C11.5781 6.84668 11.1855 7.11035 10.8633 7.44434C10.541 7.77246 10.2627 8.15918 10.0283 8.60449C9.7998 9.04395 9.62988 9.50977 9.51855 10.002C9.41309 10.4941 9.36035 10.998 9.36035 11.5137C9.36035 12.0059 9.42188 12.4863 9.54492 12.9551C9.67383 13.418 9.87012 13.8574 10.1338 14.2734C10.3975 14.6895 10.7139 15.0557 11.083 15.3721C11.458 15.6826 11.9062 15.9316 12.4277 16.1191C12.9551 16.3008 13.5264 16.3916 14.1416 16.3916C15.2725 16.3916 16.377 16.2568 17.4551 15.9873V14.1768C17.4551 13.9775 17.4404 13.8105 17.4111 13.6758C17.3818 13.5352 17.3232 13.3945 17.2354 13.2539C17.1533 13.1133 17.0156 13.0078 16.8223 12.9375C16.6348 12.8672 16.3975 12.832 16.1104 12.832C15.999 12.832 15.9229 12.7822 15.8818 12.6826C15.8467 12.583 15.8291 12.4043 15.8291 12.1465C15.8291 11.7539 15.9258 11.4023 16.1191 11.0918C16.875 11.1562 17.6191 11.1885 18.3516 11.1885C18.6504 11.1885 18.9463 11.1826 19.2393 11.1709C19.5322 11.1533 19.7725 11.1357 19.96 11.1182C20.1475 11.1006 20.2617 11.0918 20.3027 11.0918C20.3496 11.1387 20.3936 11.25 20.4346 11.4258C20.4814 11.5957 20.5049 11.748 20.5049 11.8828C20.5049 12.1113 20.4668 12.293 20.3906 12.4277C20.3145 12.5566 20.2207 12.6504 20.1094 12.709C20.0039 12.7676 19.8955 12.8291 19.7842 12.8936C19.6787 12.958 19.5879 13.0693 19.5117 13.2275C19.4355 13.3799 19.3975 13.5879 19.3975 13.8516ZM23.291 7.05762C23.1504 7.05762 23.0068 7.0459 22.8604 7.02246C22.7139 6.99316 22.5527 6.94336 22.377 6.87305C22.207 6.80273 22.0664 6.69141 21.9551 6.53906C21.8496 6.38672 21.7969 6.20508 21.7969 5.99414C21.7969 5.27344 22.2832 4.91309 23.2559 4.91309C23.5312 4.91309 23.7627 4.94824 23.9502 5.01855C24.1436 5.08887 24.2842 5.18262 24.3721 5.2998C24.4658 5.41699 24.5303 5.53125 24.5654 5.64258C24.6006 5.75391 24.6182 5.87402 24.6182 6.00293C24.6182 6.2666 24.5361 6.4834 24.3721 6.65332C24.208 6.82324 24.0322 6.93457 23.8447 6.9873C23.6631 7.03418 23.4785 7.05762 23.291 7.05762ZM24.7412 9.38672V15.7939C24.7412 15.8818 24.7441 15.9521 24.75 16.0049C24.7617 16.0518 24.7822 16.1074 24.8115 16.1719C24.8467 16.2363 24.9053 16.2861 24.9873 16.3213C25.0693 16.3506 25.1748 16.3652 25.3037 16.3652C25.5264 16.3652 25.7168 16.4004 25.875 16.4707C26.0332 16.541 26.1123 16.6465 26.1123 16.7871C26.1123 17.4727 26.0156 17.9004 25.8223 18.0703C25.2949 18.0234 24.6504 18 23.8887 18C23.0977 18 22.3594 18.0234 21.6738 18.0703C21.4805 17.8945 21.3838 17.4668 21.3838 16.7871C21.3838 16.6465 21.4629 16.541 21.6211 16.4707C21.7793 16.4004 21.9697 16.3652 22.1924 16.3652C22.4209 16.3652 22.5703 16.3184 22.6406 16.2246C22.7109 16.125 22.7461 15.9873 22.7461 15.8115V11.0918C22.7461 10.7812 22.6553 10.5615 22.4736 10.4326C22.2979 10.3037 21.9551 10.2275 21.4453 10.2041C21.3691 10.1865 21.3193 10.1484 21.2959 10.0898C21.2783 10.0312 21.2695 9.90527 21.2695 9.71191C21.2695 9.41309 21.3018 9.14941 21.3662 8.9209C21.4307 8.69238 21.4951 8.56055 21.5596 8.52539C22.0107 8.58984 22.4473 8.62207 22.8691 8.62207C23.1504 8.62207 23.4463 8.60742 23.7568 8.57812C24.0674 8.54297 24.2314 8.52539 24.249 8.52539C24.4541 8.52539 24.5859 8.57812 24.6445 8.68359C24.709 8.7832 24.7412 9.01758 24.7412 9.38672ZM34.2422 13.9219V11.6279C33.9316 11.0713 33.5215 10.6377 33.0117 10.3271C32.502 10.0166 31.9746 9.86133 31.4297 9.86133C30.6797 9.86133 30.0469 10.1572 29.5312 10.749C29.0215 11.335 28.7666 12.1904 28.7666 13.3154C28.7666 14.3936 29.042 15.2344 29.5928 15.8379C30.1436 16.4414 30.7969 16.7432 31.5527 16.7432C31.8809 16.7432 32.2031 16.6846 32.5195 16.5674C32.8359 16.4443 33.123 16.2686 33.3809 16.04C33.6387 15.8115 33.8467 15.5156 34.0049 15.1523C34.1631 14.7832 34.2422 14.373 34.2422 13.9219ZM36.2373 6.15234V15.7939C36.2373 15.876 36.2432 15.9463 36.2549 16.0049C36.2666 16.0576 36.29 16.1162 36.3252 16.1807C36.3662 16.2393 36.4307 16.2861 36.5186 16.3213C36.6064 16.3564 36.7207 16.377 36.8613 16.3828C37.4121 16.4062 37.6875 16.5293 37.6875 16.752C37.6875 17.4551 37.5879 17.8945 37.3887 18.0703C37.0664 18.0234 36.7178 18 36.3428 18C35.8154 18 35.2998 18.0234 34.7959 18.0703C34.4268 17.9004 34.2422 17.4932 34.2422 16.8486V16.7695C33.9258 17.2383 33.4775 17.6016 32.8975 17.8594C32.3174 18.1113 31.7197 18.2373 31.1045 18.2373C30.542 18.2373 30.0029 18.1318 29.4873 17.9209C28.9717 17.71 28.5029 17.4082 28.0811 17.0156C27.665 16.6172 27.3311 16.0986 27.0791 15.46C26.8271 14.8213 26.7012 14.1064 26.7012 13.3154C26.7012 12.5244 26.833 11.8096 27.0967 11.1709C27.3604 10.5322 27.7119 10.0166 28.1514 9.62402C28.5967 9.22559 29.0918 8.9209 29.6367 8.70996C30.1816 8.49902 30.75 8.39062 31.3418 8.38477H31.3945C32.5488 8.38477 33.498 8.81543 34.2422 9.67676V7.37402C34.2422 7.06348 34.1514 6.84375 33.9697 6.71484C33.7939 6.58594 33.4512 6.50977 32.9414 6.48633C32.8652 6.46875 32.8154 6.43066 32.792 6.37207C32.7744 6.31348 32.7656 6.1875 32.7656 5.99414C32.7656 5.69531 32.7979 5.43164 32.8623 5.20312C32.9268 4.97461 32.9912 4.84277 33.0557 4.80762C33.542 4.87207 34.0078 4.9043 34.4531 4.9043C34.7168 4.9043 34.9951 4.88965 35.2881 4.86035C35.5811 4.8252 35.7363 4.80762 35.7539 4.80762C35.959 4.80762 36.0908 4.86035 36.1494 4.96582C36.2139 5.06543 36.2461 5.2998 36.2461 5.66895C36.2461 5.70996 36.2432 5.78613 36.2373 5.89746C36.2373 6.00293 36.2373 6.08789 36.2373 6.15234ZM47.3818 12.8057C47.3818 13.0752 47.3115 13.2832 47.1709 13.4297C47.0361 13.5703 46.7783 13.6406 46.3975 13.6406H40.333C40.3564 14.1738 40.4502 14.6338 40.6143 15.0205C40.7783 15.4072 40.9951 15.7119 41.2646 15.9346C41.5342 16.1514 41.8301 16.3125 42.1523 16.418C42.4746 16.5176 42.8262 16.5674 43.207 16.5674C43.7402 16.5674 44.2852 16.4736 44.8418 16.2861C45.3984 16.0986 45.9023 15.835 46.3535 15.4951C46.6875 15.8877 46.8545 16.2744 46.8545 16.6553C46.8545 16.9072 46.6875 17.1562 46.3535 17.4023C46.0195 17.6426 45.5684 17.8418 45 18C44.4316 18.1582 43.8398 18.2373 43.2246 18.2373C42.7207 18.2373 42.2402 18.1875 41.7832 18.0879C41.332 17.9883 40.8867 17.8154 40.4473 17.5693C40.0137 17.3174 39.6387 17.001 39.3223 16.6201C39.0059 16.2393 38.751 15.75 38.5576 15.1523C38.3643 14.5547 38.2676 13.8779 38.2676 13.1221C38.2676 12.3838 38.4082 11.707 38.6895 11.0918C38.9707 10.4766 39.3428 9.97559 39.8057 9.58887C40.2686 9.19629 40.7842 8.89453 41.3525 8.68359C41.9268 8.47266 42.5156 8.36719 43.1191 8.36719C43.5645 8.36719 43.9922 8.42285 44.4023 8.53418C44.8125 8.64551 45.1992 8.82129 45.5625 9.06152C45.9258 9.2959 46.2422 9.58594 46.5117 9.93164C46.7812 10.2715 46.9922 10.6875 47.1445 11.1797C47.3027 11.6719 47.3818 12.2139 47.3818 12.8057ZM45.6064 12.2783C45.5537 11.4639 45.2959 10.8457 44.833 10.4238C44.376 9.99609 43.8281 9.78223 43.1895 9.78223C42.5098 9.78223 41.8916 10.0107 41.335 10.4678C40.7842 10.9189 40.4678 11.5225 40.3857 12.2783H45.6064ZM48.4277 15.4512C48.1465 14.8066 48.0059 14.0889 48.0059 13.2979C48.0059 12.5068 48.1465 11.792 48.4277 11.1533C48.709 10.5146 49.084 9.99902 49.5527 9.60645C50.0215 9.20801 50.5459 8.90332 51.126 8.69238C51.7061 8.48145 52.3125 8.37598 52.9453 8.37598C53.5723 8.37598 54.1758 8.48145 54.7559 8.69238C55.3359 8.90332 55.8574 9.20801 56.3203 9.60645C56.7891 9.99902 57.1641 10.5146 57.4453 11.1533C57.7266 11.792 57.8672 12.5068 57.8672 13.2979C57.8672 14.0889 57.7266 14.8066 57.4453 15.4512C57.1641 16.0898 56.7891 16.6084 56.3203 17.0068C55.8574 17.4053 55.3359 17.71 54.7559 17.9209C54.1758 18.1318 53.5723 18.2373 52.9453 18.2373C52.3125 18.2373 51.7061 18.1318 51.126 17.9209C50.5459 17.71 50.0215 17.4053 49.5527 17.0068C49.084 16.6084 48.709 16.0898 48.4277 15.4512ZM50.915 10.7754C50.3467 11.3789 50.0625 12.2197 50.0625 13.2979C50.0625 14.376 50.3467 15.2197 50.915 15.8291C51.4834 16.4326 52.1543 16.7344 52.9277 16.7344C53.2969 16.7344 53.6514 16.6611 53.9912 16.5146C54.3311 16.3682 54.6357 16.1572 54.9053 15.8818C55.1807 15.6006 55.4004 15.2373 55.5645 14.792C55.7285 14.3467 55.8105 13.8486 55.8105 13.2979C55.8105 12.7471 55.7285 12.249 55.5645 11.8037C55.4004 11.3584 55.1807 10.998 54.9053 10.7227C54.6357 10.4473 54.3311 10.2363 53.9912 10.0898C53.6514 9.94336 53.2969 9.87012 52.9277 9.87012C52.1543 9.87012 51.4834 10.1719 50.915 10.7754ZM69.583 18.0703C69.0146 18.0234 68.502 18 68.0449 18C67.7461 18 67.4209 18.0117 67.0693 18.0352C66.7178 18.0586 66.4863 18.0703 66.375 18.0703C66.1758 18.0703 66.0762 17.8477 66.0762 17.4023V12.1377C66.0762 11.376 65.9531 10.8193 65.707 10.4678C65.4609 10.1104 65.1387 9.93164 64.7402 9.93164C64.3301 9.93164 63.8789 10.0488 63.3867 10.2832C62.9004 10.5117 62.4434 10.8047 62.0156 11.1621V15.7939C62.0156 15.8818 62.0186 15.9521 62.0244 16.0049C62.0361 16.0518 62.0566 16.1074 62.0859 16.1719C62.1211 16.2363 62.1797 16.2861 62.2617 16.3213C62.3438 16.3506 62.4492 16.3652 62.5781 16.3652C62.8008 16.3652 62.9912 16.4004 63.1494 16.4707C63.3076 16.541 63.3867 16.6465 63.3867 16.7871C63.3867 17.4727 63.29 17.9004 63.0967 18.0703C62.7393 18.0234 62.0684 18 61.084 18C60.0996 18 59.3877 18.0234 58.9482 18.0703C58.7549 17.8945 58.6582 17.4668 58.6582 16.7871C58.6582 16.6465 58.7373 16.541 58.8955 16.4707C59.0537 16.4004 59.2441 16.3652 59.4668 16.3652C59.6953 16.3652 59.8447 16.3184 59.915 16.2246C59.9854 16.125 60.0205 15.9873 60.0205 15.8115V11.0918C60.0205 10.7812 59.9297 10.5615 59.748 10.4326C59.5723 10.3037 59.2295 10.2275 58.7197 10.2041C58.6436 10.1865 58.5938 10.1484 58.5703 10.0898C58.5527 10.0312 58.5439 9.90527 58.5439 9.71191C58.5439 9.41309 58.5762 9.14941 58.6406 8.9209C58.7051 8.69238 58.7695 8.56055 58.834 8.52539C59.2207 8.58984 59.5986 8.62207 59.9678 8.62207C60.2314 8.62207 60.5098 8.60742 60.8027 8.57812C61.0957 8.54297 61.251 8.52539 61.2686 8.52539C61.4736 8.52539 61.6055 8.57812 61.6641 8.68359C61.7285 8.7832 61.7607 9.01758 61.7607 9.38672C61.7607 9.42773 61.7578 9.50391 61.752 9.61523C61.752 9.7207 61.752 9.80566 61.752 9.87012C62.2559 9.4248 62.8271 9.06445 63.4658 8.78906C64.1045 8.51367 64.7197 8.37598 65.3115 8.37598C66.1318 8.37598 66.7969 8.66602 67.3066 9.24609C67.8164 9.82617 68.0713 10.7373 68.0713 11.9795V15.7588C68.0713 16.1396 68.2178 16.3418 68.5107 16.3652C68.5693 16.3711 68.6455 16.377 68.7393 16.3828C68.8389 16.3887 68.915 16.3945 68.9678 16.4004C69.0264 16.4062 69.0967 16.415 69.1787 16.4268C69.2607 16.4326 69.3252 16.4414 69.3721 16.4531C69.4189 16.459 69.4717 16.4707 69.5303 16.4883C69.5947 16.5 69.6445 16.5146 69.6797 16.5322C69.7148 16.5498 69.7471 16.5703 69.7764 16.5938C69.8115 16.6172 69.835 16.6465 69.8467 16.6816C69.8643 16.7109 69.873 16.7461 69.873 16.7871C69.873 17.4668 69.7764 17.8945 69.583 18.0703ZM74.9092 17.0596C75.3428 16.3154 76.0049 15.1318 76.8955 13.5088C77.7861 11.8799 78.7529 10.1016 79.7959 8.17383C80.8389 6.24023 81.4512 5.10645 81.6328 4.77246C81.8496 4.37402 82.1689 4.1748 82.5908 4.1748C82.7783 4.1748 82.9395 4.24219 83.0742 4.37695C83.209 4.50586 83.2764 4.67871 83.2764 4.89551C83.2764 5.08301 83.2178 5.27637 83.1006 5.47559C82.0752 7.29199 79.8281 11.3906 76.3594 17.7715C76.1309 18.1992 75.8145 18.4131 75.4102 18.4131C75.2051 18.4131 75.041 18.3398 74.918 18.1934C74.8008 18.0527 74.7422 17.8623 74.7422 17.6221C74.7422 17.4463 74.7979 17.2588 74.9092 17.0596ZM89.9209 13.3066C89.9209 13.541 89.5254 14.0449 88.7344 14.8184C87.9492 15.5859 87.1641 16.2979 86.3789 16.9541L85.1924 17.9385C85.1279 17.9854 85.0664 18.0088 85.0078 18.0088C84.8672 18.0088 84.6387 17.833 84.3223 17.4814C84.0117 17.1299 83.8564 16.8545 83.8564 16.6553C83.8564 16.5615 83.8945 16.4766 83.9707 16.4004L87.5566 13.3066L84.0586 10.2129C83.9824 10.1367 83.9443 10.0518 83.9443 9.95801C83.9443 9.75879 84.0879 9.4834 84.375 9.13184C84.668 8.78027 84.8789 8.60449 85.0078 8.60449C85.0664 8.60449 85.1279 8.62793 85.1924 8.6748C85.2568 8.72754 85.3447 8.80078 85.4561 8.89453C85.5732 8.98828 85.7959 9.17578 86.124 9.45703C86.4521 9.73242 86.7627 9.99902 87.0557 10.2568C87.3545 10.5146 87.6855 10.8135 88.0488 11.1533C88.418 11.4873 88.7314 11.7891 88.9893 12.0586C89.2529 12.3223 89.4727 12.5713 89.6484 12.8057C89.8301 13.0342 89.9209 13.2012 89.9209 13.3066Z" fill="white"/>
</svg>
