<svg width="20" height="20" viewBox="0 0 20 20" fill="none" xmlns="http://www.w3.org/2000/svg">
<path d="M10.0005 6.2503C7.93398 6.2503 6.2503 7.93398 6.2503 10.0005C6.2503 12.067 7.93398 13.7507 10.0005 13.7507C12.067 13.7507 13.7507 12.067 13.7507 10.0005C13.7507 7.93398 12.067 6.2503 10.0005 6.2503ZM19.626 9.39499L15.9266 7.54724L17.2352 3.62518C17.411 3.0939 16.9071 2.58997 16.3797 2.76967L12.4576 4.07832L10.606 0.375018C10.356 -0.125006 9.645 -0.125006 9.39499 0.375018L7.54724 4.07442L3.62127 2.76576C3.08999 2.58997 2.58606 3.0939 2.76576 3.62127L4.07442 7.54333L0.375018 9.39499C-0.125006 9.645 -0.125006 10.356 0.375018 10.606L4.07442 12.4537L2.76576 16.3797C2.58997 16.911 3.0939 17.4149 3.62127 17.2352L7.54333 15.9266L9.39108 19.626C9.64109 20.126 10.3521 20.126 10.6021 19.626L12.4498 15.9266L16.3719 17.2352C16.9032 17.411 17.4071 16.9071 17.2274 16.3797L15.9187 12.4576L19.6181 10.6099C20.126 10.356 20.126 9.645 19.626 9.39499ZM13.5358 13.5358C11.5865 15.4851 8.41447 15.4851 6.46516 13.5358C4.51584 11.5865 4.51584 8.41447 6.46516 6.46516C8.41447 4.51584 11.5865 4.51584 13.5358 6.46516C15.4851 8.41447 15.4851 11.5865 13.5358 13.5358Z" fill="black"/>
</svg>
